<?xml version="1.0" encoding="UTF-8"?>
<svg width="1200pt" height="1200pt" version="1.1" viewBox="0 0 1200 1200" xmlns="http://www.w3.org/2000/svg">
 <g fill="#fff">
  <path d="m599.98 103.11c41.645 0 75.035 33.355 75.035 75s-33.395 75.035-75.035 75.035c-41.645 0-75-33.395-75-75.035 0-41.645 33.355-75 75-75z"/>
  <path d="m504.62 237.43c19.926 31.848 55.215 53.211 95.363 53.211s75.473-21.363 95.398-53.211l207.35 84.777c-1.793 7.9375-2.8203 16.145-2.8203 24.609 0 8.4727 1.0234 16.73 2.8203 24.684l-207.35 84.852c-19.926-31.844-55.254-53.176-95.398-53.176-40.156 0-75.438 21.352-95.363 53.211l-207.49-84.961c1.7812-7.9297 2.7812-16.16 2.7812-24.609 0-8.4531-1-16.645-2.7812-24.574z"/>
  <path d="m187.52 271.96c41.645 0 75.035 33.211 75.035 74.855 0 41.645-33.395 75.035-75.035 75.035-41.645 0-75-33.395-75-75.035 0-41.645 33.355-74.852 75-74.855z"/>
  <path d="m1012.4 271.96c41.645 0 75.035 33.211 75.035 74.855 0 41.645-33.395 75.035-75.035 75.035-41.645 0-75-33.395-75-75.035 0-41.645 33.355-74.852 75-74.855z"/>
  <path d="m282.8 406.14 207.46 84.926c-1.7891 7.9414-2.8203 16.184-2.8203 24.645 0 55.48 40.711 101.65 93.715 110.67v284.66c-38.16 6.5117-69.945 32.289-84.738 66.98l-199.29-81.625c1.7773-7.918 2.7812-16.137 2.7812-24.574 0-55.543-40.652-101.76-93.715-110.71l0.003906-303.44c32.277-5.457 59.883-24.723 76.609-51.527z"/>
  <path d="m917.08 406.14c16.758 26.797 44.402 46.062 76.684 51.527v303.44c-53.074 8.957-93.859 55.172-93.859 110.71 0 8.4609 1.0273 16.707 2.8203 24.645l-199.14 81.555c-14.816-34.742-46.688-60.555-84.922-67.016v-284.58c53.082-8.9453 93.859-55.164 93.859-110.71 0-8.4609-1.0273-16.707-2.8203-24.645z"/>
  <path d="m599.98 440.68c41.645 0 75.035 33.395 75.035 75.035 0 41.645-33.395 74.852-75.035 74.852-41.645 0-75-33.211-75-74.852 0-41.645 33.355-75.035 75-75.035z"/>
  <path d="m187.52 796.96c41.645 0 75.035 33.211 75.035 74.852 0 41.645-33.395 75.035-75.035 75.035-41.645 0-75-33.395-75-75.035 0-41.645 33.355-74.852 75-74.852z"/>
  <path d="m1012.4 796.96c41.645 0 75.035 33.211 75.035 74.852 0 41.645-33.395 75.035-75.035 75.035-41.645 0-75-33.395-75-75.035 0-41.645 33.355-74.852 75-74.852z"/>
  <path d="m599.98 946.86c41.645 0 75.035 33.355 75.035 75s-33.395 75.035-75.035 75.035c-41.645 0-75-33.395-75-75.035 0-41.645 33.355-75 75-75z"/>
 </g>
</svg>
