<?xml version="1.0" encoding="UTF-8"?>
<svg width="1400pt" height="1400pt" version="1.1" viewBox="0 -200 1200 1600" xmlns="http://www.w3.org/2000/svg">
 <path d="m600 0c165.71 0 315.62 67.238 424.19 175.81 108.57 108.57 175.81 258.48 175.81 424.19s-67.238 315.62-175.81 424.19c-108.57 108.57-258.48 175.81-424.19 175.81s-315.62-67.238-424.19-175.81c-108.57-108.57-175.81-258.48-175.81-424.19s67.238-315.62 175.81-424.19c108.57-108.57 258.48-175.81 424.19-175.81zm388.92 211.08c-99.57-99.387-236.99-161.11-388.92-161.11s-289.34 61.727-388.92 161.11c-99.387 99.57-161.11 236.99-161.11 388.92s61.727 289.34 161.11 388.92c99.57 99.387 236.99 161.11 388.92 161.11s289.34-61.727 388.92-161.11c99.387-99.57 161.11-236.99 161.11-388.92s-61.727-289.34-161.11-388.92zm-388.92 51.438c33.066 0 63.195 13.41 84.875 35.273 21.863 21.68 35.457 51.805 35.457 84.875 0 33.25-13.594 63.195-35.273 85.059-1.4688 1.4688-3.125 2.9375-4.5938 4.4102l114.09 197.86c11.758-3.8594 24.25-5.8789 37.293-5.8789 33.25 0 63.379 13.41 85.059 35.273 21.863 21.68 35.273 51.805 35.273 85.059 0 33.066-13.41 63.195-35.273 85.059-21.863 21.68-51.805 35.09-85.059 35.09-33.25 0-63.195-13.41-85.059-35.09-16.168-16.168-27.742-36.926-32.516-60.074h-228.54c-4.9609 23.148-16.535 43.723-32.516 59.891-21.863 21.863-51.988 35.273-85.059 35.273-33.25 0-63.195-13.41-85.059-35.09-21.863-21.863-35.273-51.988-35.273-85.059 0-33.25 13.41-63.379 35.273-85.059 21.863-21.68 51.988-35.273 85.059-35.273 13.043 0 25.535 2.0195 37.293 5.8789l114.09-197.86c-1.4688-1.2852-3.125-2.7539-4.5938-4.2266-21.863-21.863-35.273-51.988-35.273-85.242 0-33.066 13.41-63.195 35.273-84.875 21.863-21.863 51.988-35.273 85.059-35.273zm37.293 234.6c-11.758 3.8594-24.25 5.8789-37.293 5.8789s-25.535-2.0195-37.293-5.8789l-114.27 197.86c1.6523 1.4688 3.125 2.9375 4.5938 4.4102 16.168 16.168 27.742 36.926 32.699 60.074h228.54c4.7773-23.332 16.352-43.906 32.516-60.074 1.4688-1.4688 3.125-2.9375 4.5938-4.4102l-57.133-99.02zm-219.54 237.54c-12.676-12.676-30.129-20.574-49.602-20.574s-37.109 7.8984-49.785 20.574c-12.676 12.676-20.574 30.312-20.574 49.785 0 19.289 7.8984 36.926 20.574 49.602 12.676 12.676 30.312 20.574 49.785 20.574s36.926-7.8984 49.602-20.391c12.676-12.859 20.574-30.312 20.574-49.785s-7.8984-37.109-20.574-49.785zm463.87 0c-12.676-12.676-30.312-20.574-49.785-20.574-19.289 0-36.926 7.8984-49.602 20.574-12.676 12.676-20.574 30.312-20.574 49.785 0 19.289 7.8984 36.926 20.574 49.602 12.676 12.676 30.312 20.574 49.602 20.574 19.473 0 37.109-7.8984 49.785-20.574 12.676-12.676 20.574-30.312 20.574-49.602 0-19.473-7.8984-37.109-20.574-49.785zm-231.84-401.59c-12.676-12.676-30.312-20.574-49.785-20.574s-37.109 7.8984-49.785 20.574c-12.676 12.676-20.574 30.312-20.574 49.602 0 19.473 7.8984 37.109 20.758 49.785 12.676 12.676 30.129 20.574 49.602 20.574s37.109-7.8984 49.785-20.574c12.676-12.676 20.391-30.312 20.391-49.785 0-19.289-7.7148-36.926-20.391-49.602z" fill="#fff"/>
</svg>
