<?xml version="1.0" encoding="UTF-8"?>
<svg width="1200pt" height="1200pt" version="1.1" viewBox="0 0 1200 1200" xmlns="http://www.w3.org/2000/svg">
 <g fill="#fff">
  <path d="m758.34 40.836-0.9375-0.28125h-0.16797c-77.832-21.676-161.91-22.781-243.21-3.1875-2.7734 0.44922-5.5703 1.1445-8.0625 1.9492l-5.2891 1.3867c-7.4258 1.9688-14.945 4.1445-22.836 6.6016-55.145 15.148-104.81 38.23-147.62 68.625-77.344 54.898-129.9 133.18-151.89 226.18-6.9375 25.5-11.773 52.406-13.969 77.605-1.1992 10.18-0.99219 20.418 0.63672 31.312 0.9375 6.2617 1.3672 11.945 1.332 17.344v0.44922c-0.14844 17.117-4.5938 34.086-12.883 49.07l-54.508 98.68c-9.3203 16.895-14.492 36-14.945 55.293-0.88281 37.258 20.137 71.887 52.801 87.977-1.4258 4.3125-2.3984 8.793-2.9453 13.352-2.043 17.383 2.5859 35.867 13.406 53.664-4.6133 21.918 0.48828 44.887 13.836 62.324v75c-0.61719 17.867 5.8516 34.82 18.188 47.738 5.1562 5.3633 11.117 9.8047 17.738 13.199 0.33594 0.32031 0.69531 0.61719 1.0508 0.9375l0.33594 0.30078c25.969 22.086 66.336 32.008 120.07 29.477 37.238-1.7266 70.273-9.0547 79.312-11.211 4.1641-0.84375 8.2305-1.3516 12.113-1.5391l30.168 112.12c2.5508 9.4492 9.6016 16.895 18.898 19.93 2.9453 0.95703 5.9805 1.4258 8.9805 1.4258 6.4688 0 12.824-2.1758 18.02-6.3555 8.9258-7.1641 12.77-18.938 9.8047-29.98l-34.648-128.77c-3.4492-12.789-13.969-22.707-26.812-25.238-14.945-2.9453-31.293-2.6797-48.824 0.86328l-0.82422 0.20703c-44.305 10.688-120.3 17.98-148.18-5.7734-1.5-1.2383-2.9062-2.6992-4.2188-4.3516-5.2305-6.4883-7.5938-14.961-7.0312-25.238 3.2812-10.258 15.188-53.832-7.5391-86.738-2.1367-3.168-4.6133-6.1875-7.6133-9.2812l-1.0312-1.0312c-1.4062-1.3125-8.1758-8.5117-2.5859-20.926l7.3516-16.352-11.23-14.062c-7.0508-8.8125-11.023-17.793-10.352-23.398 0.30078-2.457 1.4062-4.4258 3.6016-6.375 6.3008-5.5859 9.918-13.613 9.918-22.031v-8.793c0-13.312-8.9805-25.012-21.844-28.426-12.617-3.3945-23.625-7.875-31.855-12.957-8.3633-5.1562-13.836-14.324-14.625-24.508-0.48828-6.2422 0.86328-12.449 3.8984-17.945l71.758-129.9c2.5703-3.7891 18.637-30.656 11.512-103.33-0.26172-2.5859 0-4.7812 0.20703-6.543 0.074218-0.65625 0.13281-1.2188 0.14844-1.4805l3.4141-30.883 0.20703-1.4258c16.367-83.023 75.301-230.68 285.82-287.59h1.5l6.2422-2.043c0.35547-0.13281 0.71094-0.26172 1.0312-0.33594l4.293-0.91797c34.539-6.918 71.57-10.594 110.02-10.914h3.3359c19.426 0 38.738 1.3516 57.281 3.9766 30.488 4.9688 60.395 13.445 88.914 25.164 76.273 31.312 142.31 84.656 190.95 154.24 48.469 69.395 75.77 149.42 78.918 231.38 0.58203 15.508 0.30078 31.07-0.86328 46.258l-0.019532 0.375c-16.742 158.34-119.79 291.26-268.97 346.95-3.3945 1.2734-6.4688 3.0742-9.1328 5.3633-14.852 8.4766-21.898 25.727-17.176 42.227l4.2734 14.867 34.762 148.26c2.3828 10.145 10.051 18.242 20.023 21.188 9.8984 2.9062 20.324 0.46875 27.883-6.543 7.5547-7.0117 10.801-17.211 8.6641-27.301l-32.023-150.75c28.762-12.02 56.457-26.945 82.332-44.398 129.66-87.469 207.92-233.08 209.34-389.57 0.039063-3.4883 0.039063-7.0312 0-10.52-2.6875-214.13-149.75-400.84-357.64-454.06z"/>
  <path d="m639.7 185.96c-18.508-9.3359-39.414-14.586-61.52-14.586-75.543 0-137.01 61.461-137.01 137.01 0 16.82 13.633 30.43 30.449 30.43 16.82 0 30.449-13.633 30.449-30.43 0-41.961 34.145-76.125 76.125-76.125 41.961 0 76.105 34.145 76.105 76.125 0 41.961-34.145 76.105-76.105 76.105-16.82 0-30.449 13.633-30.449 30.449v91.332c0 16.82 13.633 30.449 30.449 30.449 16.82 0 30.43-13.633 30.43-30.449v-64.293c60.938-13.875 106.55-68.512 106.55-133.59 0-28.367-8.625-54.805-23.512-76.668-17.75-26.082-51.969-45.754-51.969-45.754z"/>
  <path d="m608.62 612.82c0 16.816-13.633 30.449-30.449 30.449-16.816 0-30.449-13.633-30.449-30.449 0-16.816 13.633-30.449 30.449-30.449 16.816 0 30.449 13.633 30.449 30.449"/>
  <path d="m869.34 327.8c-60.918 0-110.49 49.52-110.49 110.38 0 13.555 11.008 24.523 24.562 24.523 13.555 0 24.543-10.969 24.543-24.523 0-33.805 27.523-61.312 61.387-61.312 33.844 0 61.387 27.508 61.387 61.312 0 33.824-27.523 61.332-61.387 61.332-13.555 0-24.543 10.988-24.543 24.523v73.594c0 13.539 10.988 24.523 24.543 24.523s24.543-10.988 24.543-24.523v-51.805c49.145-11.195 85.93-55.199 85.93-107.64 0.019532-60.863-49.535-110.38-110.47-110.38z"/>
  <path d="m893.93 683.48c0 13.543-10.996 24.523-24.562 24.523-13.566 0-24.562-10.98-24.562-24.523 0-13.547 10.996-24.527 24.562-24.527 13.566 0 24.562 10.98 24.562 24.527"/>
  <path d="m376.71 490.69c-55.707 0-101.04 45.281-101.04 100.95 0 12.395 10.051 22.426 22.461 22.426 12.395 0 22.461-10.051 22.461-22.426 0-30.918 25.18-56.082 56.117-56.082 30.957 0 56.137 25.164 56.137 56.082s-25.18 56.082-56.137 56.082c-12.395 0-22.461 10.051-22.461 22.426v67.293c0 12.395 10.051 22.426 22.461 22.426 12.414 0 22.461-10.031 22.461-22.426v-47.383c44.945-10.238 78.582-50.477 78.582-98.438-0.015625-55.648-45.332-100.93-101.04-100.93z"/>
  <path d="m399.11 815.93c0 12.383-10.039 22.426-22.426 22.426s-22.426-10.043-22.426-22.426c0-12.387 10.039-22.426 22.426-22.426s22.426 10.039 22.426 22.426"/>
 </g>
</svg>
