<?xml version="1.0" encoding="UTF-8"?>
<svg width="1200pt" height="1200pt" version="1.1" viewBox="0 0 1200 1200" xmlns="http://www.w3.org/2000/svg">
 <g fill="#fff" fill-rule="evenodd">
  <path d="m600 400c-46.852 0-92.551-5.3984-136.45-14.801-6.5508 49.75-11.051 104.65-12.699 164.8h298.3c-1.6484-60.148-6.1484-115.05-12.699-164.8-43.898 9.4023-89.598 14.801-136.45 14.801"/>
  <path d="m480.79 915c33.402 153.45 86.301 235 119.2 235 32.953 0 85.852-81.551 119.2-235-38.703-9.5508-78.551-15-119.2-15-40.598 0-80.5 5.4492-119.2 15"/>
  <path d="m600 50c-33.051 0-86.199 82.148-119.55 236.7 38.152 8.4023 78.199 13.301 119.55 13.301s81.398-4.8984 119.55-13.352c-33.352-154.5-86.5-236.65-119.55-236.65"/>
  <path d="m450.87 650c1.6484 60.75 6.1992 116.15 12.898 166.3 44.301-10.352 89.852-16.301 136.25-16.301 46.352 0 91.902 5.9492 136.25 16.301 6.6523-50.152 11.199-105.55 12.852-166.3z"/>
  <path d="m849.17 650c-1.8516 67.449-7.4531 134.2-16.703 197.45 65.352 27.652 126.05 66.602 179 116.6 1.25 1.1484 2.4023 2.3477 3.4531 3.5977l29.5 34.051c85.797-94.848 141.85-216.85 153.05-351.7z"/>
  <path d="m350.83 550c1.8008-66 7.1523-131.4 16.051-193.5-71.898-28.602-134.5-70.352-181.35-122.85l-30.203-35.047c-85.699 94.848-141.6 216.7-152.8 351.4z"/>
  <path d="m941.02 1035.1c-38.152-35.699-81.152-64.398-127.15-86.348-23.098 101.55-57.297 186.75-102 240.45 96.801-18.352 185.25-60 259.65-118.9z"/>
  <path d="m1015 233.05c-47.098 52.801-109.9 94.75-181.9 123.4 8.8984 62.102 14.25 127.5 16.102 193.55h348.3c-11.199-134.7-67.148-256.55-152.8-351.4z"/>
  <path d="m386.12 948.77c-46.699 22.301-90.352 51.551-128.95 87.949-2 1.9531-4.1523 3.6523-6.4492 5.1523l-31.703 21.301c76.25 62.797 168.3 106.9 269.1 126-44.699-53.703-78.898-138.9-102-240.4"/>
  <path d="m367.53 847.52c-9.25-63.301-14.852-130.05-16.703-197.5h-348.3c10.797 130 63.148 248.15 143.8 341.5l45.25-30.402c52.203-48.598 111.9-86.5 175.95-113.6"/>
  <path d="m260.7 167.73c32.301 36.199 75.25 65.598 124.5 87.75 23.148-103.35 57.648-190.2 102.95-244.65-96.949 18.402-185.5 60.152-260 119.2z"/>
  <path d="m971.85 130c-74.453-59.051-163.05-100.8-260-119.15 45.297 54.398 79.797 141.25 102.95 244.55 49.348-22.25 92.449-51.801 125.05-88.301z"/>
 </g>
</svg>
