<?xml version="1.0" encoding="UTF-8"?>
<svg width="1400pt" height="1400pt" version="1.1" viewBox="0 -200 1200 1600" xmlns="http://www.w3.org/2000/svg">
 <g fill="#fff">
  <path d="m184.62 635.08v169.85l166.15-84.922zm27.691 44.305 77.539 38.77-77.539 38.77z"/>
  <path d="m299.08 1017.2h-97.848c-7.3828 0-14.77 5.5391-14.77 14.77 0 7.3828 5.5391 14.77 14.77 14.77h97.848c7.3828 0 14.77-5.5391 14.77-14.77-1.8477-9.2305-7.3867-14.77-14.77-14.77z"/>
  <path d="m169.85 396.92h103.38v27.691h-103.38z"/>
  <path d="m300.92 396.92h25.848v27.691h-25.848z"/>
  <path d="m1070.8 212.31c-73.848-68.309-168-105.23-267.69-108.92h-11.078-11.078c-99.691 1.8477-193.85 40.617-267.69 108.92-40.617 36.922-72 81.23-94.152 129.23h-354.46c-38.77 0-70.152 31.383-70.152 70.152v614.77c0 38.77 31.383 70.152 70.152 70.152h369.23c38.77 0 68.309-31.383 68.309-70.152l-0.003906-214.15 9.2305 9.2305c75.691 70.152 175.38 108.92 278.77 108.92 103.38 0 203.08-38.77 278.77-108.92 84.922-77.539 132.92-188.31 132.92-304.62 3.6953-114.46-46.152-227.07-131.07-304.61zm105.23 289.84h-168c-1.8477-75.691-12.922-145.85-31.383-204.92 29.539-14.77 59.078-33.23 84.922-57.23 70.152 70.152 110.77 164.31 114.46 262.15zm-371.08-369.23c55.383 7.3828 105.23 64.617 136.62 151.38-42.461 18.461-88.617 27.691-136.62 29.539zm-27.691 0v180.93c-48-1.8477-94.152-12.922-136.62-29.539 31.387-86.77 81.234-144 136.62-151.39zm0 208.62v162.46h-175.38c1.8477-70.152 11.078-136.62 29.539-193.85 46.152 18.465 95.996 29.539 145.84 31.387zm0 188.31v162.46c-49.848 1.8477-99.691 12.922-145.85 31.383-18.461-55.383-27.691-121.85-29.539-193.85zm0 190.15v180.92c-55.383-7.3828-105.23-64.617-136.62-151.38 42.465-16.617 88.617-27.691 136.62-29.539zm-81.23 169.85c-57.23-14.77-108.92-40.617-155.08-79.383 22.152-18.461 48-35.078 73.848-48 22.152 55.383 49.848 97.844 81.23 127.38zm108.92 11.074v-180.92c48 1.8477 94.152 12.922 136.62 29.539-31.387 86.77-81.23 144-136.62 151.38zm162.46-138.46c25.848 12.922 49.848 29.539 72 48-44.309 38.77-97.848 66.461-155.08 79.383 33.234-29.535 62.773-71.996 83.078-127.38zm-162.46-70.152v-162.46h175.38c-1.8477 72-11.078 136.62-29.539 193.85-46.148-18.465-94.148-29.543-145.84-31.387zm0-190.16v-162.46c49.848-1.8477 99.691-12.922 145.85-31.383 18.461 55.383 27.691 121.85 29.539 193.85zm249.23-265.84c-1.8477-1.8477-3.6914-1.8477-3.6914-3.6914 0 0 1.8477 0 1.8477 1.8477 0-0.003906 1.8438-0.003906 1.8438 1.8438zm-12.922-12.926c-22.152 18.461-48 35.078-73.848 48-20.309-55.383-48-99.691-81.23-127.38 57.23 12.922 108.93 40.617 155.08 79.383zm-426.46 48c-25.848-12.922-49.848-29.539-72-48h-1.8477c44.309-38.77 97.848-66.461 155.08-79.383-31.383 29.539-59.078 72-81.23 127.38zm-81.23-40.613c-1.8477 1.8477-1.8477 1.8477-3.6914 3.6914 0 0 0-1.8477 1.8477-1.8477-0.003906 0.003907-0.003906-1.8438 1.8438-1.8438zm-11.078 11.078c25.848 22.152 53.539 40.617 84.922 55.383-18.461 59.078-31.383 129.23-31.383 204.92h-72v-90.461c0-33.23-24-60.922-55.383-68.309 18.461-36.922 42.461-72 73.844-101.54zm-48 723.69h-450.46v-487.39h452.31v487.39zm-409.84-594.46h369.23c22.152 0 40.617 18.461 40.617 42.461v36.922h-450.46v-36.922c0-24 18.461-42.461 40.617-42.461zm369.23 697.84h-369.23c-22.152 0-42.461-18.461-42.461-42.461v-35.078h452.31v35.078c-0.003906 24-18.465 42.461-40.617 42.461zm68.305-297.23v-241.84h72c1.8477 75.691 12.922 145.85 31.383 204.92-29.539 14.77-59.078 33.23-84.922 55.383-5.5352-3.6914-11.074-11.074-18.461-18.461zm25.848 25.848c-1.8477 0-1.8477 0 0 0-1.8477 0-1.8477 0 0 0zm531.69-3.6914v0c-24-24-53.539-42.461-83.078-57.23 18.461-59.078 31.383-129.23 31.383-204.92h168c-3.6875 97.844-44.305 192-116.3 262.15z"/>
  <path d="m249.23 899.08c99.691 0 180.92-81.23 180.92-180.92s-81.23-180.92-180.92-180.92c-99.691 0-180.92 81.23-180.92 180.92s81.23 180.92 180.92 180.92zm0-332.31c84.922 0 153.23 68.309 153.23 153.23s-68.309 153.23-153.23 153.23-153.23-68.309-153.23-153.23 68.309-153.23 153.23-153.23z"/>
 </g>
</svg>
