<?xml version="1.0" encoding="UTF-8"?>
<svg width="1200pt" height="1200pt" version="1.1" viewBox="0 0 1200 1200" xmlns="http://www.w3.org/2000/svg">
 <path d="m962.33 107.62h-135.46c-94.477 0-171.77 77.293-171.77 171.77 0 36.898 11.832 71.16 31.836 99.227-8.0898 18.492-22.738 42.793-46.922 54.66-7.5117 3.6836-5.7852 14.891 2.4844 16.176 25.262 3.9492 61.633 2.7852 95.305-23.363 26.004 15.887 56.52 25.066 89.051 25.066h135.45c94.477 0 171.77-77.293 171.77-171.77 0.027344-94.477-77.277-171.77-171.74-171.77zm-175.4 207.6c-6.1562 0-11.953-1.5586-17.004-4.3086-9.9375-5.3984-17.004-15.383-18.395-27.121v-8.4844c1.3906-11.723 8.4609-21.719 18.395-27.121 5.0508-2.7461 10.848-4.3086 17.004-4.3086 19.691 0 35.664 15.973 35.664 35.664 0 19.723-15.973 35.68-35.664 35.68zm109.68 2.3281c-19.691 0-35.664-15.973-35.664-35.664s15.973-35.664 35.664-35.664c19.691 0 35.664 15.973 35.664 35.664s-15.961 35.664-35.664 35.664zm109.68 2.3164c-2.4609 0-4.8594-0.25391-7.1875-0.71875-2.3164-0.46875-4.5586-1.1758-6.6953-2.0742-12.805-5.4102-21.781-18.098-21.781-32.867 0-14.773 8.9883-27.445 21.781-32.867 2.1367-0.89844 4.3789-1.6094 6.6953-2.0742 2.3281-0.48047 4.7266-0.71875 7.1875-0.71875 19.691 0 35.664 15.973 35.664 35.664 0.011719 19.684-15.961 35.656-35.664 35.656zm-343.51 593.62c-43.801-20.605-66.086-24.719-67.621-25.547-1.3203-0.70703-74.688-19.98-108.34-38.293-7.9062-5.0625-12.875-8.8555-12.875-8.8555v-5.1367h-0.023437v-31.273s98.785 3.0234 145.66-44.844c0 0-68.207-19.32-55.957-143.5 12.266-124.16-15.289-233.2-115.08-223.97 0 0-43.262-52.055-129.36-19.32-29.57 11.258-108.89 39.66-104.86 211.71 4.0312 172.04-61.152 173.05-61.152 173.05s33.602 48.887 147.67 47.879v34.969s-4.9688 3.7812-12.875 8.8555c-33.66 18.312-107.02 37.586-108.34 38.293-1.5352 0.82812-23.82 4.9453-67.621 25.547-43.801 20.605-46.105 65.387-46.105 65.387v39.574c96.648 47.578 205.86 74.375 321.49 74.375 115.63 0 224.84-26.809 321.49-74.375v-39.145c-0.011719 0.003906-2.3164-44.781-46.113-65.383z" fill="#fff"/>
</svg>
