<svg version="1.1" xmlns="http://www.w3.org/2000/svg" viewBox="0 0 1512.75 916.4817993089705" width="3025.5" height="1832.963598617941">
  <!-- svg-source:excalidraw -->
  
  <defs>
    <style>
      @font-face {
        font-family: "Virgil";
        src: url("https://excalidraw.com/Virgil.woff2");
      }
      @font-face {
        font-family: "Cascadia";
        src: url("https://excalidraw.com/Cascadia.woff2");
      }
    </style>
  </defs>
  <g stroke-linecap="round"><g transform="translate(1220.75 388.75) rotate(0 79.37863703787343 -43.17952356728165)"><path d="M0.04460248164832592 2.606391646340489 C22.811479358002543 1.9117568074415123, 114.79946899426481 13.001155489558975, 139.18116050176323 -2.651419387385249 C163.56285200926166 -18.30399426432947, 168.96830316794416 -79.8127801677833, 146.33475152663885 -91.30905761532486 C123.70119988533357 -102.80533506286642, 27.22185426565508 -74.75607589694361, 3.3798506539314985 -71.62908407263458 M-3.3757089561223985 1.5529790157079697 C20.037533886233966 1.1898890664180122, 119.915009414951 15.972802433371545, 144.4600672394037 0.8957132571935658 C169.00512506385644 -14.181375918984415, 167.23126127779483 -77.33519289871057, 143.8946379905939 -88.9095560413599 C120.55801470339298 -100.48391918400924, 28.383586342136066 -71.42701208333175, 4.440327516198159 -68.55046559870243" stroke="#000000" stroke-width="1" fill="none"></path></g><g transform="translate(1220.75 388.75) rotate(0 79.37863703787343 -43.17952356728165)"><path d="M33.544603991723086 -87.5000730756788 C19.8252803938288 -79.92921935506038, 8.21867993473684 -70.73572584052582, 5.684493126720191 -67.43228008970618 M30.364687891146566 -85.23016400487408 C20.78139457655465 -79.15121388176823, 16.00994885231781 -74.1759737440338, 4.821847007051111 -68.22312263585627" stroke="#000000" stroke-width="1" fill="none"></path></g><g transform="translate(1220.75 388.75) rotate(0 79.37863703787343 -43.17952356728165)"><path d="M37.887434551857545 -67.44365701717517 C22.247878442824003 -67.73632784322744, 8.93828362721533 -66.40774245408043, 5.684493126720191 -67.43228008970618 M34.707518451281025 -65.17374794637045 C23.869660676893183 -65.01390102706272, 17.802672080464696 -66.021843172521, 4.821847007051111 -68.22312263585627" stroke="#000000" stroke-width="1" fill="none"></path></g></g><g stroke-linecap="round" transform="translate(975.1377232142777 309.6945533389112) rotate(0 122.51627604166697 40.42643229166674)"><path d="M20.340365567555068 1.629735928028822 M20.424175350425024 0.32388395305435436 C92.81853318967478 -2.6063645700562112, 164.19400906297892 -3.1728068078256255, 223.1561452355775 1.3932688156695534 M20.929265531413492 0.42191077547132255 C85.37958316790208 1.2209099209640841, 149.77645539346608 0.029601544606751795, 225.68785873611426 0.8043382258272792 M224.81933593750057 0 C236.72273438382538 -1.8246478028595448, 243.45846025024912 7.75086387784946, 246.38712660347483 18.879877866556285 M225.38405843451676 -0.2803465314209461 C236.1842586615646 2.213762947358191, 242.98378401057235 6.054098440313518, 244.33402112977018 19.425556670067248 M243.83753949528 19.760578194012282 C244.14381288822594 32.91053331059272, 244.15184342201653 45.38393279362823, 245.74505394821426 61.81716807559144 M245.6970025294777 19.90070195061469 C245.51566180523423 32.00145784027282, 245.311541824899 45.15579306037528, 244.57945460019073 61.17103963159036 M245.03255208333394 60.639648437500114 C246.83212832485697 73.45988042611229, 236.942085317854 79.31715327625488, 226.38799579814133 81.63299757366394 M246.71204809223673 59.59149418398749 C243.13928583518972 72.46006169892448, 239.4923052349651 81.38277214610343, 225.44726893361715 82.40652012669807 M223.4823630901161 81.85921314432916 C177.00565335748826 79.68695829807788, 129.20202765534614 79.27754205761917, 21.532973501798253 80.45788591104687 M224.1288473409349 81.12201033232257 C156.92451922821212 82.52407010099573, 89.06440198471515 81.9678027420291, 19.8473468217479 80.30743621616776 M20.21321614583337 80.85286458333348 C7.765003507749915 79.9516620052359, -1.9496473483741283 74.68797250050652, -0.6087800674140453 62.2170142941178 M20.09301117931807 82.43892592315888 C8.08340628070551 80.971915344832, 1.2993082946166394 72.02581530786651, 0.8819749182090164 61.45092530492705 M0.9016046337783337 61.996925551444406 C1.4868111465969687 44.90235888106274, 0.8068991755047447 29.421763920886157, -0.2078334279358387 19.885816254963515 M0.37971834279596806 60.02377354167413 C-0.7555223440692617 48.609184346481406, -0.296213064150591 35.63806705985802, 0.85402069427073 20.6461492882421 M0 20.21321614583337 C-1.5735836438834667 8.281664816455722, 5.594568675176978 -1.9610057063400745, 20.44465056930983 -0.4289443679153919 M0.293549258261919 22.129461706926463 C-1.6622591251507401 5.6275085639001725, 4.818101566264213 -0.4048200344666839, 19.166117599171933 0.3060541057959201" stroke="#000000" stroke-width="1" fill="none"></path></g><g transform="translate(878.1051711309456 839.6721737816201) rotate(0 79.5 12.5)"><text x="79.5" y="18" font-family="Virgil, Segoe UI Emoji" font-size="20px" fill="#000000" text-anchor="middle" style="white-space: pre;" direction="ltr">Emeritus Member</text></g><g stroke-linecap="round" transform="translate(835.0888950892786 811.7457414899532) rotate(0 122.51627604166697 40.42643229166674)"><path d="M21.756006994595168 0.05706058070063591 M19.109525441400145 0.9865944755814304 C65.18495101879795 -0.12614313977028768, 108.04767819960085 -2.4122501477497424, 226.20747635465744 -0.9733541387085196 M19.729898135787913 -0.2588632403320513 C81.58934186039642 -0.17420880284775297, 143.49625725481098 0.33152396117911775, 224.60957447777594 0.3854812725415704 M224.81933593750057 0 C239.34042888093384 0.9064221195876598, 246.93468669926187 8.677784172611117, 244.1693604377415 21.089291752626536 M224.7536068744963 -0.8076002784073353 C238.98156183153034 -2.1649196362122893, 244.99679247991554 5.585922105217159, 245.40855723278037 18.75778507435077 M245.19139307861587 19.626899400105117 C246.88934001950904 35.550586399505306, 246.31490061311408 48.426257804423074, 247.0272789609935 60.100759942084665 M245.93140023884735 20.512530933444737 C245.0456560852943 31.10178276020518, 244.2350354793487 42.37467983537871, 245.87520980772933 60.57066272757959 M245.03255208333394 60.639648437500114 C245.28877393280527 74.20002169865715, 236.3014523308316 79.3222367179892, 224.80092879012284 80.32145351295685 M244.09486404930612 61.50055788084876 C243.0976230169963 76.1541646835913, 238.53747808724287 82.92152444565063, 225.92303680237438 80.39731290781265 M226.30815910220286 82.27416488136566 C168.75336714999128 80.90485098956586, 112.65518432062642 79.97000081875802, 20.63177795883898 80.0877519114641 M224.61306740377273 80.30903793614218 C150.17312645350862 80.36015552600273, 74.362698665817 80.95609688668112, 20.494258575396024 80.57569904899844 M20.21321614583337 80.85286458333348 C6.004447882788062 80.17108947162842, -1.9664171151816845 73.19455893296349, 0.08182473853230476 62.40160213038337 M19.52669230972731 81.6607719076178 C7.653827279040396 81.56392596804862, -1.5558984154835342 73.54271206236976, -1.7313818925991653 62.504310783185176 M0.5236009173095226 59.37952788546693 C0.8810319491089107 45.69971972055958, -1.6650413684188603 33.93429830491981, 0.9914600662887096 18.982075968136428 M-0.11773361824452877 61.520162155851835 C-0.6328556902473185 49.04158484267291, 0.11570491718600062 37.42560785603207, -0.6448179092258215 20.207919906203983 M0 20.21321614583337 C1.236257154494524 6.106843320445895, 4.786134784834266 -1.873326439410448, 20.903649845471023 -0.07488479092717171 M0.6594432182610035 20.196804822733043 C0.9416079943999649 6.497236395979106, 7.850283848473609 -1.333875504694879, 19.993592163485822 1.5307481015101074" stroke="#000000" stroke-width="1" fill="none"></path></g><g stroke-linecap="round" transform="translate(252.86588541666652 247.11588541666697) rotate(0 196.24999999999977 97.5)"><path d="M193.5887447129168 2.068818886499497 C253.33598920923436 32.00424147146064, 313.73698241942327 65.0628103502738, 390.5905573626499 99.26160699908696 M197.9326934276541 -0.49663231851160544 C243.53623818652997 23.352147334259147, 288.9815718489055 47.12732818692109, 392.45812029808667 99.05083775189367 M395.22797773814534 99.5711525748818 C339.1951584949729 126.49150068615316, 282.2484401235501 151.2389064511912, 194.4001905797033 195.86372916935647 M392.70083181196384 98.39207151665852 C319.60224115751123 137.0554395113373, 248.26336175906704 172.63273981519234, 197.65310157131253 193.75566004731954 M194.7561891029186 195.93712160880384 C132.83481983317475 161.63956129088447, 63.42769324441469 130.48745693127776, -1.7744528038869745 100.71170664336911 M198.01933259439875 193.94598287056675 C138.626543096592 165.44960135923705, 84.01554804428216 135.5548031004707, 1.4637979110248847 97.50343843427149 M-1.0714921945754854 100.95000004571587 C61.373074869434966 64.30775280715554, 120.9555085235094 36.45390243489913, 194.68480061328896 -1.7035005917417714 M1.5991302263692517 97.35504363758831 C52.44333084522493 68.89714899960798, 109.40659650125575 42.5002952488724, 196.78627731485233 -0.7351721163763106" stroke="#000000" stroke-width="1" fill="none"></path></g><g stroke-linecap="round"><g transform="translate(652 347.5) rotate(0 157.57754958681744 1.0461052734403893)"><path d="M-1.9680851895362137 2.559815897420049 C50.78727422567705 2.897480990365148, 264.50814947697023 -0.3999305030951897, 317.12318436317145 -0.46760535053908825 M2.1590014940500257 1.4811192888021472 C54.566855491598446 2.371434948643049, 262.52197358826794 2.9570792828003563, 315.35918976843357 2.2293120568990705" stroke="#000000" stroke-width="1" fill="none"></path></g><g transform="translate(652 347.5) rotate(0 157.57754958681744 1.0461052734403893)"><path d="M290.8669958302462 13.851189104098061 C293.98007456969714 6.056917296241355, 306.7637886254274 8.805153785964297, 319.2599211643636 -1.5654750035703184 M285.25706446372806 12.854195906969885 C293.6335852990698 9.540098701938756, 299.52791549381567 9.825774003431107, 315.6584543130547 4.028145462498069" stroke="#000000" stroke-width="1" fill="none"></path></g><g transform="translate(652 347.5) rotate(0 157.57754958681744 1.0461052734403893)"><path d="M290.78404676849925 -6.669851849981114 C293.558252671345 -7.873484324182744, 306.36860234586504 1.4642254219102018, 319.2599211643636 -1.5654750035703184 M285.1741154019811 -7.666845047109291 C293.9359800036112 -5.93454431202641, 299.85070281890745 -0.60387160294189, 315.6584543130547 4.028145462498069" stroke="#000000" stroke-width="1" fill="none"></path></g></g><g transform="translate(752 306) rotate(0 47.5 12.5)"><text x="47.5" y="18" font-family="Virgil, Segoe UI Emoji" font-size="20px" fill="#000000" text-anchor="middle" style="white-space: pre;" direction="ltr">Financially</text></g><g transform="translate(1011.1539992559447 337.62098563057816) rotate(0 86.5 12.5)"><text x="86.5" y="18" font-family="Virgil, Segoe UI Emoji" font-size="20px" fill="#000000" text-anchor="middle" style="white-space: pre;" direction="ltr">Supporting Member</text></g><g stroke-linecap="round"><g transform="translate(444.8290971128372 166.25) rotate(0 -0.6816246940697965 33.165004419643765)"><path d="M-0.4781024318188427 -0.8824863273650407 C-0.4196224489355395 10.761638057007259, 2.4369536650457424 58.24138521191411, 2.818918577331715 70.15987012586811 M-4.182167965471745 -3.829861286580563 C-4.656461803942354 7.009132523088519, 0.2916022048918845 54.51438545837434, 0.9622622848783067 66.2239771073989" stroke="#000000" stroke-width="1" fill="none"></path></g><g transform="translate(444.8290971128372 166.25) rotate(0 -0.6816246940697965 33.165004419643765)"><path d="M-12.82913876787094 39.96985161935603 C-3.8189067179619975 49.156512595509916, 1.7141762095135107 58.48404722123945, -1.1181068411733577 68.72589346750894 M-11.712932969408907 40.33994918016409 C-7.788184438382802 46.48190925285126, -2.222127897502503 56.89181433917145, 0.04265396570008306 67.81080205536702" stroke="#000000" stroke-width="1" fill="none"></path></g><g transform="translate(444.8290971128372 166.25) rotate(0 -0.6816246940697965 33.165004419643765)"><path d="M7.623391884516625 38.29235577763641 C8.698628204474128 48.06028135254209, 6.293179194996562 58.03892632446453, -1.1181068411733577 68.72589346750894 M8.739597682978658 38.66245333844447 C5.478080462026646 45.675661389637305, 3.8833895840642647 56.6728837240219, 0.04265396570008306 67.81080205536702" stroke="#000000" stroke-width="1" fill="none"></path></g></g><g transform="translate(366.6158854166665 313.0319556826612) rotate(0 82.49999999999977 25)"><text x="82.5" y="18" font-family="Virgil, Segoe UI Emoji" font-size="20px" fill="#000000" text-anchor="middle" style="white-space: pre;" direction="ltr">How do you want</text><text x="82.5" y="43" font-family="Virgil, Segoe UI Emoji" font-size="20px" fill="#000000" text-anchor="middle" style="white-space: pre;" direction="ltr">to contribute?</text></g><g stroke-linecap="round"><g transform="translate(449.3301486319215 457.7868104507629) rotate(0 -0.03692449716209012 44.72954474740459)"><path d="M2.4058117311447855 -1.861925910040736 C1.636153789397273 12.737240597645377, -2.1521019461940036 73.00865161190397, -2.532156845338977 88.40295425341984 M0.26729960024356814 3.2990033572912214 C0.13833878091096233 18.188965954944422, 2.766502633249729 77.63697260700133, 2.444506535596811 91.32101540484985" stroke="#000000" stroke-width="1" fill="none"></path></g><g transform="translate(449.3301486319215 457.7868104507629) rotate(0 -0.03692449716209012 44.72954474740459)"><path d="M-10.921790574115288 59.545647165827994 C-5.9624607414925554 73.65325989790205, 1.0483438678293702 81.6717726812612, -1.401196876250542 87.37162212127407 M-7.511294773217809 63.58845228803957 C-4.484858676902547 70.20662917034448, -2.8286375014693803 79.30754947642558, 3.110649410925471 90.70375039459725" stroke="#000000" stroke-width="1" fill="none"></path></g><g transform="translate(449.3301486319215 457.7868104507629) rotate(0 -0.03692449716209012 44.72954474740459)"><path d="M9.596837106897024 59.22019290815942 C6.873972404543661 73.80228550805316, 6.200704247016476 81.94267847936077, -1.401196876250542 87.37162212127407 M13.007332907794503 63.262998030370994 C10.48068979482128 69.99609574050946, 6.577999991601647 79.18518818334985, 3.110649410925471 90.70375039459725" stroke="#000000" stroke-width="1" fill="none"></path></g></g><g transform="translate(495.5609002976107 487.0734595889103) rotate(0 72.5 12.5)"><text x="72.5" y="18" font-family="Virgil, Segoe UI Emoji" font-size="20px" fill="#000000" text-anchor="middle" style="white-space: pre;" direction="ltr">By contributing</text></g><g stroke-linecap="round" transform="translate(309.74088541666606 10) rotate(0 139.375 70)"><path d="M36.09860085323453 -1.4382135160267353 M36.843944847088814 2.62605782421997 C100.5941230117931 -1.6904568077088924, 159.22786889744657 -4.57792246016607, 243.47835495778543 -1.73011673953584 M34.94810207235937 -1.2833591409823288 C112.59203976503079 2.2116914135779733, 188.8326646194902 3.282732252121835, 242.75410172419825 0.10262077305623982 M243.75 0 C268.3792960134645 -2.5854673869907856, 275.65376256778836 9.189576378713053, 276.41813181713223 33.39094479009509 M240.12471019104123 3.635631751269102 C270.25177853213 3.218191114999354, 282.0533121338114 11.446677877443534, 278.2673053374514 38.445944116450846 M276.8941767923534 36.55794369056821 C282.9476960124448 51.59774738457054, 276.82276622671634 68.64425350166857, 279.5326930992305 102.37859295681119 M278.3157635871321 33.97411445342004 C278.2647337520495 52.8456104202196, 277.06678356770425 72.19834379851818, 277.6439711395651 103.88087794743478 M278.75 105 C275.79991732910275 124.8927264524003, 265.5485838142534 136.10596449300647, 241.46880124881864 136.2550817243755 M277.7620419152081 103.27528901025653 C283.0686763336882 132.35863679641238, 268.5067996214454 137.34119345936924, 246.59718620683998 137.72539037261157 M247.27011562677646 142.6316961264377 C194.79427300972048 141.91994294187393, 150.60951010751018 140.71837313773676, 33.18527513037926 138.3113905373294 M245.0707850606989 140.48854899711435 C171.0220430007504 141.79551031028035, 98.04868961540726 141.9214678392272, 36.56479082180978 139.66873558001814 M35 140 C9.932651071498793 141.33320565149188, 3.1700031645596027 131.55608978991708, -0.7464442364871502 105.39026052877307 M32.676915753632784 138.40034360811114 C14.15186670726786 144.29115986023098, 0.5776132097467777 125.10058102005473, -1.1657467970624564 100.43635899815709 M2.25421030446887 101.98560701683164 C-2.9910043435171247 83.5271661663428, 4.747270826809109 57.44017383269966, -2.095783520489931 37.433682430535555 M-1.5018302258104086 106.15316990576684 C1.316181926243007 91.60823229048401, 2.374251334182918 75.1785652898252, 1.008498603478074 36.236088490113616 M0 35 C-2.7169689051806927 12.860644689450663, 14.17980447287361 -0.32495658472180367, 33.455012548714876 -2.08926098421216 M2.020698893815279 32.156303357332945 C-3.5235364148393273 7.440385957496863, 14.870554331007103 2.861445377208292, 39.50726609136909 -0.5585035225376487" stroke="#000000" stroke-width="1" fill="none"></path></g><g stroke-linecap="round" transform="translate(440.53546847680445 29.607445931148504) rotate(0 10.792662194000059 9.933615198504071)"><path d="M10.303895560751824 -0.2222395097995591 C12.424368168548769 -0.5309225473044359, 13.985594294814657 0.6483673514070099, 15.775604851853917 1.8548764622453593 C17.565615408893176 3.061385573083709, 20.14192219728797 5.0993450862947, 21.043958902987384 7.016815155230538 C21.9459956086868 8.934285224166377, 22.147595370774386 11.329955142588277, 21.187825086050424 13.35969687586039 C20.22805480132646 15.389438609132503, 17.376079669780992 18.21786068044468, 15.28533719464361 19.195265554863212 C13.194594719506227 20.172670429281744, 10.856120195130778 19.70462611320425, 8.643370235226131 19.224126122371587 C6.430620275321484 18.743626131538925, 3.4032200433450033 17.789404479934333, 2.0088374352157263 16.312265609867246 C0.6144548270864496 14.83512673980016, 0.03723161440871525 12.715521974067533, 0.2770745864504711 10.361292901969067 C0.516917558492227 8.007063829870601, 1.5666741854594672 3.7952756981701086, 3.4478952674662615 2.1868911772764488 C5.329116349473056 0.5785066563827892, 10.28167920263019 1.1957831299334922, 11.564401078491237 0.7109857766071102 C12.847122954352283 0.22618842328072802, 11.328002671902434 -0.8938969137770988, 11.144226522632534 -0.7218929426818441 M11.22943792633175 0.24616940063952164 C13.351158404975617 0.515532089238766, 17.63237417561882 1.208277072813696, 19.407366190405384 2.8340094027164353 C21.182358205191946 4.459741732619174, 21.901800967869754 7.842456310378246, 21.879390015051115 10.000563380055958 C21.856979062232476 12.15867044973367, 20.542953828746008 14.07624200424193, 19.27290047349355 15.78265182078271 C18.002847118241093 17.48906163732349, 16.448218269929647 19.64462745326782, 14.259069883536377 20.23902227930064 C12.069921497143106 20.833417105333464, 8.592909260064012 20.170056767400535, 6.138010155133931 19.34902077697965 C3.6831110502038498 18.527984786558765, 0.419731731553762 17.226966940382887, -0.47032474604411156 15.312806336775331 C-1.3603812236419852 13.398645733167776, -0.2737350393830933 9.971494369148367, 0.79767128954669 7.8640571553343115 C1.8690776184764732 5.756619941520256, 4.3246070225824225 3.761032475633251, 5.958113227534588 2.6681830538909956 C7.591619432486753 1.5753336321487401, 9.724455022518976 1.62488159885182, 10.59870851925968 1.3069606248807784 C11.472962016000386 0.9890396509097368, 10.755078150188414 0.6063779229999842, 11.20363420797882 0.7606572100647462" stroke="#000000" stroke-width="1" fill="none"></path></g><g stroke-linecap="round"><g transform="translate(450.143434319476 50.05985020557637) rotate(0 -0.6569180179267278 11.939165846017772)"><path d="M0.11608842685818677 -0.29554712846875186 C-0.02654245986329165 3.856976510761811, -1.78610597619348 19.918706023090255, -1.8145927283934742 23.922747148893084 M-1.2821038783807308 -1.4963133162539453 C-0.9549612582820073 2.933158040941267, 0.3359495731580183 20.982128769273608, 0.5007566925395788 25.374645008289498" stroke="#000000" stroke-width="1" fill="none"></path></g></g><g stroke-linecap="round"><g transform="translate(449.79652798767165 73.76563403364457) rotate(0 4.537977280124778 7.468788495629838)"><path d="M-0.29554712846875186 -0.7554383151233196 C1.4317689340659476 1.8407161647974637, 7.792668139610935 13.296266496628121, 9.3715016887179 15.693015306382888 M1.750151899745688 1.4623526240978388 C3.3920266432319828 3.7305953184756575, 7.2588952286192505 11.94408001706895, 8.337928833265824 14.097709779241569" stroke="#000000" stroke-width="1" fill="none"></path></g></g><g stroke-linecap="round"><g transform="translate(447.9149540612034 73.71443796794233) rotate(0 -3.2627753008009677 6.672367138699201)"><path d="M-0.7554383151233196 -0.16290931776165962 C-1.9670517528846219 2.10114054069374, -5.742573091782309 10.935806747548481, -7.153592199709627 13.288752022263646 M1.0488178400974721 -1.2940406549256296 C-0.2430964202198489 1.1690036019448584, -6.251955228516511 11.850684450859402, -7.574368441699433 14.638774932324006" stroke="#000000" stroke-width="1" fill="none"></path></g></g><g stroke-linecap="round"><g transform="translate(437.8185534074528 63.42318583308861) rotate(0 5.270581767992553 -4.066599520033378)"><path d="M-0.16290931776165962 1.0043223269283772 C1.9278050328017113 -0.3926915150502617, 10.069129208088338 -7.611145800162998, 12.248738974911474 -9.137521366995152 M-1.7075754389259965 0.4859876032266768 C0.21974427303940902 -0.7336260011320852, 8.776811254224224 -6.931096774737311, 11.113291170123345 -8.158506294699711" stroke="#000000" stroke-width="1" fill="none"></path></g></g><g stroke-linecap="round"><g transform="translate(449.688187857706 55.3338115796123) rotate(0 5.0900780739702896 4.732118064968859)"><path d="M1.0043223269283772 -0.3569568403065204 C2.455921874660283 1.512561255444502, 6.631921148389726 9.204501565046186, 7.954158971268116 11.054199256744475 M0.07245281922630964 -1.5899631268065424 C1.9490635675650387 -0.08478053910405436, 8.76477451664038 6.819440392324279, 10.10770332871507 9.093877578644321" stroke="#000000" stroke-width="1" fill="none"></path></g></g><g transform="translate(327.11588541666606 105.39255406885127) rotate(0 122 12.499999999999886)"><text x="122" y="18" font-family="Virgil, Segoe UI Emoji" font-size="20px" fill="#000000" text-anchor="middle" style="white-space: pre;" direction="ltr">Interested in the mission</text></g><g transform="translate(385.0595982142795 843.8828671409942) rotate(0 67.5 12.5)"><text x="67.5" y="18" font-family="Virgil, Segoe UI Emoji" font-size="20px" fill="#000000" text-anchor="middle" style="white-space: pre;" direction="ltr">Active Member</text></g><g stroke-linecap="round" transform="translate(330.04332217261253 816.4564348493277) rotate(0 122.51627604166697 40.42643229166674)"><path d="M22.006050505985854 1.907398920506239 M19.19653134269309 -0.0835581659403497 C81.8842832353104 1.555390668462896, 145.22511990695338 1.1591609083991696, 223.26944442650483 -1.10374369665462 M20.754705178561434 -0.7171443321192739 C63.840524259722436 1.5646561993737995, 106.48480558387853 0.5819522244121603, 224.52373710449328 0.7546722485864816 M224.81933593750057 0 C237.00157087254914 1.8914993815124035, 245.59919706856272 7.257820693569064, 244.77793971573374 21.819619716455577 M225.6965100355452 -1.9291132874786854 C237.54019436627271 1.18616491202265, 246.19902032868376 4.726409996652782, 244.77092721716872 18.319301484463153 M244.07934433346054 19.921922006954787 C243.8240897398963 28.920382785629705, 244.14441428003454 41.2396023838847, 244.96280330543777 61.796390611678476 M245.68559908804855 19.44518072468543 C244.79297671192185 35.4368018825681, 245.34866431825654 49.3876420193326, 245.76544266877136 60.001098087057585 M245.03255208333394 60.639648437500114 C243.1517820743229 75.46602089661705, 239.3487370531598 82.8030682218573, 225.89140351489243 82.62689286594605 M243.31238726650736 62.563775401562566 C246.47604810850135 72.31175672389168, 238.26285542636754 79.21106133305793, 224.2819205349317 78.67396718108421 M224.25881902586383 82.14068123186587 C146.0826134556707 79.31884473287298, 68.16780586222853 81.7120899794011, 20.89767272878413 80.30105499637882 M225.06599510448063 80.5327572534672 C159.3388878276828 79.50803395025014, 92.38665134350072 79.34292579818876, 20.578742602734035 80.90908842442526 M20.21321614583337 80.85286458333348 C5.099107330458045 82.47728794937348, 0.5403021164238453 75.03858776349175, -0.8628949336707592 59.83830521628272 M20.642370739330886 80.57424730186676 C6.901922856995642 80.38556944572693, 1.5964125936850904 75.34743564106124, -1.3050127321854232 58.770053114928416 M-1.7766039557754993 62.190099198371286 C1.7873526187176443 43.297141850208774, -1.2960856585269236 26.60922066537634, -1.057558435946703 18.809954562534926 M0.46284309960901737 60.538909664377684 C-1.1242157612519206 50.65753291544337, -0.601876238413328 40.07839272351589, 0.544204929843545 19.529384623592136 M0 20.21321614583337 C1.9361030645668507 8.368768421726108, 6.172698681967139 0.9525520615279675, 21.750395932545302 1.2054843716323376 M0.6405620165169239 20.78231543426716 C0.15456448849290627 6.520162756347835, 5.9286252073736785 1.8818599605932826, 19.05373093144351 -1.3107838129624723" stroke="#000000" stroke-width="1" fill="none"></path></g><g stroke-linecap="round" transform="translate(327 560) rotate(0 125.625 59.375)"><path d="M0.4010478963043559 -1.253281492434697 C99.94370253316612 3.4567181109990743, 196.0626902779247 2.9948495024867325, 253.98780108179335 -2.7935047529692816 M0.19455779273109788 1.3610489228267009 C66.00381826344365 3.438338725717436, 130.16108807710415 3.9671407530318303, 252.06649557871688 -1.4115137567352418 M251.50463067367673 3.277249049395323 C248.89178970910143 35.62430358084385, 253.42144552327227 76.74108391185293, 251.83224557712674 120.32625348493457 M250.67093507014215 -0.04322916828095913 C253.47620284475852 33.087114738649696, 253.47500961937476 69.1307219665032, 250.66619572602212 117.93389081396163 M248.1458341734036 115.7549603655464 C155.2378474733069 117.61186904795134, 57.789567646365825 117.84861893582648, 2.223396900064634 119.1678830199555 M250.86244604661368 119.72900008918165 C200.5597439265577 118.02802729770424, 149.72814049240623 119.37301735291743, -1.6146523897992753 117.31453399917545 M-3.830074440687895 117.22667355462909 C4.354193608392961 75.71972431091126, 3.8070595666067675 39.53694422612898, -2.6156416051089764 -3.635920215398073 M1.2629759665578604 119.86288171447814 C-1.145122195710428 75.70460946264211, -1.438181723584421 34.39526947704144, 0.13654396496713161 -0.8862670715898275" stroke="#000000" stroke-width="1" fill="none"></path></g><g transform="translate(372.125 593.375) rotate(0 80.5 25)"><text x="80.5" y="18" font-family="Virgil, Segoe UI Emoji" font-size="20px" fill="#000000" text-anchor="middle" style="white-space: pre;" direction="ltr">Join or propose</text><text x="80.5" y="43" font-family="Virgil, Segoe UI Emoji" font-size="20px" fill="#000000" text-anchor="middle" style="white-space: pre;" direction="ltr">a Working Group</text></g><g stroke-linecap="round"><g transform="translate(449.5 688.75) rotate(0 0.3185283221678219 61.70063935678445)"><path d="M0.8901986617594955 1.9796017926186318 C1.6462634383390347 22.682432063544788, 2.2214569507787623 102.64847104164461, 2.708131494000554 122.81534690074622 M-2.071074849665165 0.5859318128228184 C-1.6168944850564007 20.599645175834496, -0.7798758330941201 99.02032738039891, -0.09546322971582422 118.65443838745355" stroke="#000000" stroke-width="1" fill="none"></path></g><g transform="translate(449.5 688.75) rotate(0 0.3185283221678219 61.70063935678445)"><path d="M-8.122061445741073 89.19861584758662 C-6.446224928586364 97.26814597083516, -3.66215183085256 101.16860904425523, 1.9305155627429484 114.67672916486859 M-11.380084899617449 89.14847378103339 C-6.2731009465406835 99.31035584997927, -4.502677957075302 107.72791924723488, -0.8579822558909656 119.0985258872062" stroke="#000000" stroke-width="1" fill="none"></path></g><g transform="translate(449.5 688.75) rotate(0 0.3185283221678219 61.70063935678445)"><path d="M12.394555961809408 88.76455071648748 C9.250691993648335 97.06641432141544, 7.219410325784771 101.06875469537184, 1.9305155627429484 114.67672916486859 M9.136532507933032 88.71440864993424 C8.083173931008405 99.05565544923586, 3.699577722493763 107.60341794787817, -0.8579822558909656 119.0985258872062" stroke="#000000" stroke-width="1" fill="none"></path></g></g><g stroke-linecap="round"><g transform="translate(174.27270972827637 900) rotate(0 67.30311893789303 -45.13145635352225)"><path d="M147.65727918809094 -0.44478215985000125 C123.47361412990884 -0.4831260543316603, 31.282257407980605 14.863536065692703, 6.681260192052406 0.08833774514496273 C-17.919737023875793 -14.686860575402775, -23.019230033297696 -76.64008388730387, 0.05129589252173883 -89.09597208313645 C23.121821818341175 -101.55186027896902, 120.22137664330256 -77.17764561784765, 145.104415746969 -74.64699142985046 M151.51736930919625 -3.154546285271645 C126.83891761895315 -3.945073063174884, 30.158124822926965 11.646189607977865, 4.617161963910741 -3.517232881188393 C-20.92380089510548 -18.68065537035465, -25.01675705280339 -82.52017578025658, -1.728407844901085 -94.1350812202692 C21.55994136300122 -105.74998666028182, 119.58561192253977 -76.6031482241551, 144.34725721132457 -73.20666552126407" stroke="#000000" stroke-width="1" fill="none"></path></g><g transform="translate(174.27270972827637 900) rotate(0 67.30311893789303 -45.13145635352225)"><path d="M113.99121806840384 -68.66442586740145 C128.99957911985524 -69.99500239340797, 137.27804437204253 -75.06301757913876, 141.2801265972525 -70.66853739485144 M114.68545951577806 -68.93551966620275 C123.70629436804396 -67.58148477022164, 127.82566787680719 -70.27437544328001, 145.10994018007517 -73.73708096124231" stroke="#000000" stroke-width="1" fill="none"></path></g><g transform="translate(174.27270972827637 900) rotate(0 67.30311893789303 -45.13145635352225)"><path d="M118.3190087261408 -88.72409262456978 C131.81714282045203 -82.91922587190668, 138.53975954262395 -80.77575475782216, 141.2801265972525 -70.66853739485144 M119.01325017351502 -88.99518642337108 C127.28088996673661 -82.72139075491238, 130.3201778360644 -80.40799537817206, 145.10994018007517 -73.73708096124231" stroke="#000000" stroke-width="1" fill="none"></path></g></g><g transform="translate(10 832.25) rotate(0 59.5 26)"><text x="59.5" y="18" font-family="Virgil, Segoe UI Emoji" font-size="20px" fill="#000000" text-anchor="middle" style="white-space: pre;" direction="ltr">Continued</text><text x="59.5" y="44" font-family="Virgil, Segoe UI Emoji" font-size="20px" fill="#000000" text-anchor="middle" style="white-space: pre;" direction="ltr">participation</text></g><g transform="translate(1408.75 315.25) rotate(0 47 26)"><text x="47" y="18" font-family="Virgil, Segoe UI Emoji" font-size="20px" fill="#000000" text-anchor="middle" style="white-space: pre;" direction="ltr">Continued</text><text x="47" y="44" font-family="Virgil, Segoe UI Emoji" font-size="20px" fill="#000000" text-anchor="middle" style="white-space: pre;" direction="ltr">support</text></g><g stroke-linecap="round"><g transform="translate(589.5 854.6806832553802) rotate(0 120.8889742958172 -0.9110582210330449)"><path d="M-0.7356949169188738 2.4706654090434315 C38.86718380066256 2.062770617001343, 196.79984633934995 -3.0497090652928365, 237.03995993547142 -4.292781851109339 M4.060403628945352 1.3435728210210804 C44.62776359776656 1.4634899575691305, 203.19725827117762 -0.6716811454391095, 242.5136435085535 -1.393025605570747" stroke="#000000" stroke-width="1" fill="none"></path></g><g transform="translate(589.5 854.6806832553802) rotate(0 120.8889742958172 -0.9110582210330449)"><path d="M218.01193354956553 6.852840776614636 C220.53478369496253 9.24964659509249, 227.37335488817564 0.7834396210288599, 244.58575745090843 -2.3809141913468377 M213.46697750434026 9.279581707961649 C223.4646918056733 4.472592818286734, 234.6441779909377 -0.08813538247169816, 242.2372332213074 0.005998737547324495" stroke="#000000" stroke-width="1" fill="none"></path></g><g transform="translate(589.5 854.6806832553802) rotate(0 120.8889742958172 -0.9110582210330449)"><path d="M217.6993802003767 -13.665987474280934 C220.03908264337835 -5.534954058586086, 226.96497552296321 -8.26857589193461, 244.58575745090843 -2.3809141913468377 M213.15442415515145 -11.239246542933921 C222.99176433152329 -9.056055476136155, 234.27775366439334 -6.624953963433235, 242.2372332213074 0.005998737547324495" stroke="#000000" stroke-width="1" fill="none"></path></g></g><g transform="translate(605.75 822.25) rotate(0 87.5 12.5)"><text x="87.5" y="18" font-family="Virgil, Segoe UI Emoji" font-size="20px" fill="#000000" text-anchor="middle" style="white-space: pre;" direction="ltr">Ready to move on</text></g></svg>