<?xml version="1.0" encoding="utf-8"?>
<!-- Generator: Adobe Illustrator 15.1.0, SVG Export Plug-In . SVG Version: 6.00 Build 0)  -->
<!DOCTYPE svg PUBLIC "-//W3C//DTD SVG 1.1//EN" "http://www.w3.org/Graphics/SVG/1.1/DTD/svg11.dtd">
<svg version="1.1" id="Shapes" xmlns="http://www.w3.org/2000/svg" xmlns:xlink="http://www.w3.org/1999/xlink" x="0px" y="0px"
	 width="474.516px" height="171.962px" viewBox="0 0 474.516 171.962" enable-background="new 0 0 474.516 171.962"
	 xml:space="preserve">
<path id="down_arrow" fill="#231F20" d="M352.535,106.517c36.758-21.855,77.197-35.327,116.299-52.168
	c10.918-4.702,4.482-20.635-5.674-20.967c-38.374-1.245-74.287,9.238-109.39,23.975c-34.429,14.453-62.533,35.767-94.618,53.867
	c-18.403,10.386-30.317,2.939-47.217-7.637c-17.681-11.069-35.581-21.738-53.521-32.378C119.967,48.416,82.057,23.226,41.95,3.5
	C8.947-12.736-16.693,31.624,13.278,52.557c39.268,27.427,82.539,49.883,123.828,74.17c32.197,18.94,74.844,53.34,115.039,43.501
	C290.163,160.921,319.737,126.019,352.535,106.517z"/>
</svg>
