<?xml version="1.0" encoding="utf-8"?>
<!-- Generator: Adobe Illustrator 15.1.0, SVG Export Plug-In . SVG Version: 6.00 Build 0)  -->
<!DOCTYPE svg PUBLIC "-//W3C//DTD SVG 1.1//EN" "http://www.w3.org/Graphics/SVG/1.1/DTD/svg11.dtd">
<svg version="1.1" id="Shapes" xmlns="http://www.w3.org/2000/svg" xmlns:xlink="http://www.w3.org/1999/xlink" x="0px" y="0px"
	 width="635.85px" height="203.121px" viewBox="0 0 635.85 203.121" enable-background="new 0 0 635.85 203.121"
	 xml:space="preserve">
<path id="right_arrow" d="M635.709,91.832c-2.643-31.855-45.391-53.921-70.287-67.62c-21.66-11.917-63.995-35.716-86.925-17.688
	c-2.341,1.839-3.102,5.868-2.269,8.578c5.924,19.301,31.315,25.99,47.336,35.472c9.601,5.683,19.094,11.629,28.146,18.17
	c-83.031,2.831-166.246,8.726-249.16,12.417c-49.041,2.185-98.087,4.949-147.036,8.75c-48.923,3.797-96.566,12.072-145.065,18.192
	c-13.463,1.701-14.395,22.317,0,21.779c46.705-1.742,94.086,0.83,140.926,0.276c50.393-0.601,100.789-1.143,151.176-1.897
	c62.991-0.943,126.666-0.041,190.058-1.546c-21.89,8.577-43.896,16.873-65.354,26.499c-27.765,12.448-8.013,57.468,20.575,48.81
	c40.398-12.241,80.051-29.96,118.465-47.387C592.245,142.865,638.725,128.13,635.709,91.832z"/>
</svg>
