<?xml version="1.0" encoding="utf-8"?>
<!-- Generator: Adobe Illustrator 15.1.0, SVG Export Plug-In . SVG Version: 6.00 Build 0)  -->
<!DOCTYPE svg PUBLIC "-//W3C//DTD SVG 1.1//EN" "http://www.w3.org/Graphics/SVG/1.1/DTD/svg11.dtd">
<svg version="1.1" id="Layer_1" xmlns="http://www.w3.org/2000/svg" xmlns:xlink="http://www.w3.org/1999/xlink" x="0px" y="0px"
	 width="234.945px" height="358px" viewBox="0 0 234.945 358" enable-background="new 0 0 234.945 358" xml:space="preserve">
<g>
	<g>
		<g>
			<path d="M117.472,358c-9.113,0-16.5-7.387-16.5-16.5V51.036l-74.104,59.851c-7.089,5.726-17.477,4.621-23.204-2.469
				c-5.726-7.089-4.62-17.478,2.469-23.204L106.998,3.75c0.37-0.304,0.755-0.593,1.153-0.866c2.16-1.48,4.588-2.391,7.078-2.731
				c0.004,0,0.007-0.005,0.013-0.002c0.99-0.134,1.986-0.179,2.978-0.134c0.003,0,0.006,0,0.01,0h0
				c3.409,0.156,6.78,1.367,9.593,3.632c0.006,0.005,0.012,0.01,0.018,0.014l100.972,81.551c4.037,3.26,6.133,8.031,6.134,12.845
				c0,3.641-1.198,7.306-3.664,10.359c-5.725,7.089-16.113,8.195-23.204,2.469l-74.105-59.852V341.5
				C133.972,350.613,126.585,358,117.472,358z"/>
		</g>
	</g>
</g>
</svg>
