<?xml version="1.0" encoding="utf-8"?>
<!-- Generator: Adobe Illustrator 15.1.0, SVG Export Plug-In . SVG Version: 6.00 Build 0)  -->
<!DOCTYPE svg PUBLIC "-//W3C//DTD SVG 1.1//EN" "http://www.w3.org/Graphics/SVG/1.1/DTD/svg11.dtd">
<svg version="1.1" id="Layer_1" xmlns="http://www.w3.org/2000/svg" xmlns:xlink="http://www.w3.org/1999/xlink" x="0px" y="0px"
	 width="234.944px" height="358px" viewBox="0 0 234.944 358" enable-background="new 0 0 234.944 358" xml:space="preserve">
<g>
	<g>
		<g>
			<path d="M117.476,358c-0.25,0-0.5-0.006-0.75-0.017c-0.003-0.001-0.006-0.001-0.009-0.001h-0.001
				c-3.409-0.156-6.78-1.367-9.593-3.632c-0.006-0.005-0.012-0.01-0.018-0.015L6.133,272.785C2.097,269.525,0,264.754,0,259.941
				c0-3.642,1.198-7.307,3.664-10.359c5.726-7.089,16.114-8.194,23.203-2.469l74.105,59.852V16.5c0-9.113,7.387-16.5,16.5-16.5
				c9.112,0,16.5,7.387,16.5,16.5v290.464l74.104-59.851c7.09-5.726,17.478-4.62,23.203,2.469c5.727,7.09,4.62,17.478-2.469,23.203
				L127.946,354.25c-0.37,0.305-0.754,0.593-1.152,0.865c-2.16,1.48-4.588,2.391-7.077,2.732c-0.005,0-0.009,0.002-0.013,0.002
				C118.963,357.949,118.218,358,117.476,358z"/>
		</g>
	</g>
</g>
</svg>
