<?xml version="1.0" encoding="utf-8"?>
<!-- Generator: Adobe Illustrator 15.1.0, SVG Export Plug-In . SVG Version: 6.00 Build 0)  -->
<!DOCTYPE svg PUBLIC "-//W3C//DTD SVG 1.1//EN" "http://www.w3.org/Graphics/SVG/1.1/DTD/svg11.dtd">
<svg version="1.1" id="Shapes" xmlns="http://www.w3.org/2000/svg" xmlns:xlink="http://www.w3.org/1999/xlink" x="0px" y="0px"
	 width="748.389px" height="270.907px" viewBox="0 0 748.389 270.907" enable-background="new 0 0 748.389 270.907"
	 xml:space="preserve">
<path id="circle" d="M745.786,97.237c-1.91-6.789-4.92-13.239-8.725-19.052c-3.803-5.822-8.355-11.026-13.303-15.635
	c-9.93-9.226-21.271-16.179-32.816-21.895c-11.582-5.699-23.467-10.152-35.336-13.901c-11.879-3.739-23.764-6.751-35.539-9.308
	c-23.564-5.086-46.688-8.384-69.02-10.818c-22.34-2.414-43.906-3.916-64.51-4.914c-20.605-0.989-40.25-1.461-58.777-1.638
	c-37.059-0.336-69.647,0.471-96.62,1.454c-26.974,1-48.336,2.202-62.956,3.079l-22.503,1.444
	c-38.246,2.604-70.525,5.802-96.951,9.046c-26.425,3.253-46.999,6.571-61.834,9.671c-14.835,3.105-23.932,5.999-27.399,8.523
	c-3.468,2.537-1.299,4.648,6.313,6.464c5.05,1.251,46.425-3.338,113.283-9.069c33.428-2.838,73.225-5.938,118.001-8.363
	c44.769-2.391,94.54-4.191,147.751-3.585c26.598,0.327,54.055,1.272,82.076,3.366c28.004,2.124,56.623,5.326,85.146,10.887
	c14.246,2.799,28.465,6.205,42.357,10.604c13.867,4.411,27.475,9.804,39.861,16.903c12.324,7.08,23.486,16.029,30.625,27.21
	c3.57,5.568,6.088,11.65,7.404,18.079c1.305,6.411,1.504,13.277,0.512,19.773c-0.986,6.541-3.205,12.914-6.436,18.934
	c-3.232,6.021-7.453,11.684-12.316,16.927c-9.76,10.496-21.896,19.318-34.811,26.945c-12.953,7.627-26.775,14.096-40.934,19.799
	c-14.174,5.695-28.711,10.619-43.4,14.988c-29.396,8.721-59.379,15.27-89.26,20.461c-29.893,5.172-59.721,8.945-89.133,11.648
	c-29.441,2.385-59.491,3.775-89.884,4.105c-30.391,0.322-61.132-0.408-91.913-2.465c-30.77-2.076-61.616-5.428-91.949-10.879
	c-15.157-2.738-30.184-6.014-44.862-10.102c-14.655-4.104-29.029-8.994-42.353-15.318c-6.643-3.168-13.015-6.709-18.772-10.754
	c-5.746-4.035-10.888-8.609-14.655-13.66c-3.781-5.055-6.025-10.488-6.416-16.094c-0.205-2.672,0.057-6.012,0.571-9.107
	c0.527-3.119,1.373-6.184,2.518-9.168c2.281-5.977,5.761-11.625,10.022-16.834c4.265-5.213,9.29-9.991,14.73-14.368
	c10.914-8.758,23.372-15.954,36.214-22.184c12.872-6.221,26.21-11.472,39.644-16.098c13.442-4.621,27.001-8.607,40.52-12.146
	c27.052-7.061,53.93-12.364,80.096-16.621c52.371-8.442,101.903-12.759,146.516-14.929c44.631-2.13,84.404-1.975,117.688-0.498
	c33.291,1.458,60.072,4.349,78.912,7.292c18.873,2.898,29.746,5.825,32.277,5.673c3.813-0.206,6.375-0.604,7.65-1.404
	c1.275-0.794,1.258-2.009-0.184-3.641c-2.854-3.246-11.541-8.124-26.357-12.673c-14.799-4.573-35.625-8.803-62.365-11.681
	c-26.74-2.886-59.402-4.491-97.91-3.984c0,0.012-7.939,0.059-22.641,0.498c-14.697,0.456-36.157,1.334-63.151,3.41
	c-26.989,2.094-59.526,5.349-96.253,10.986c-18.359,2.828-37.765,6.264-57.996,10.595c-20.228,4.343-41.294,9.562-62.853,16.253
	c-21.53,6.738-43.641,14.834-65.32,26.005c-10.813,5.614-21.517,12.027-31.591,19.836c-5.029,3.908-9.889,8.179-14.41,12.926
	c-4.516,4.744-8.692,9.98-12.2,15.783c-3.503,5.794-6.312,12.182-7.998,18.951c-0.846,3.379-1.413,6.846-1.683,10.336
	c-0.279,3.406-0.272,7.225,0.309,10.854c1.099,7.338,4.256,14.229,8.439,19.994c4.188,5.803,9.309,10.629,14.742,14.813
	c10.934,8.332,23.109,14.295,35.535,19.311c12.461,4.977,25.287,8.906,38.272,12.246c25.99,6.631,52.621,10.941,79.413,14.051
	c26.802,3.078,53.798,4.869,80.751,5.736c53.912,1.686,107.666-0.27,159.745-5.229c26.082-2.012,52.449-4.861,78.883-8.75
	c26.428-3.898,52.932-8.822,79.182-15.219c26.232-6.43,52.268-14.262,77.332-24.701c12.516-5.236,24.785-11.141,36.506-18.088
	c11.697-6.955,22.906-14.945,32.721-24.654c4.891-4.855,9.42-10.15,13.309-15.955c3.893-5.793,7.129-12.109,9.387-18.81
	c2.268-6.691,3.508-13.757,3.666-20.803C748.528,111.1,747.712,104.026,745.786,97.237z"/>
</svg>
