<?xml version="1.0" encoding="utf-8"?>
<!-- Generator: Adobe Illustrator 15.1.0, SVG Export Plug-In . SVG Version: 6.00 Build 0)  -->
<!DOCTYPE svg PUBLIC "-//W3C//DTD SVG 1.1//EN" "http://www.w3.org/Graphics/SVG/1.1/DTD/svg11.dtd">
<svg version="1.1" id="Shapes" xmlns="http://www.w3.org/2000/svg" xmlns:xlink="http://www.w3.org/1999/xlink" x="0px" y="0px"
	 width="1183.657px" height="65.421px" viewBox="0 0 1183.657 65.421" enable-background="new 0 0 1183.657 65.421"
	 xml:space="preserve">
<path id="flat_underline" fill-rule="evenodd" clip-rule="evenodd" d="M4.329,65.412c163.247-7.563,326.2-10.293,489.208-12.991
	c43.508-0.72,87.002-1.435,130.504-2.424c65.259-1.484,130.511-3.393,195.771-5.486c116.513-3.74,233.036-8.609,349.646-14.679
	c8.228-0.399,14.582-7.405,14.183-15.632c-0.4-8.228-7.405-14.583-15.633-14.182c-139.794,6.404-279.482,10.133-419.104,14.461
	c-37.286,1.156-74.564,2.359-111.836,3.801c-55.934,2.163-111.84,4.663-167.749,7.485C314.079,33.602,159.013,43.811,3.79,57.309
	c-2.235,0.148-3.93,2.085-3.781,4.32C0.157,63.866,2.094,65.56,4.329,65.412L4.329,65.412z"/>
</svg>
