<?xml version="1.0" encoding="utf-8"?>
<!-- Generator: Adobe Illustrator 15.1.0, SVG Export Plug-In . SVG Version: 6.00 Build 0)  -->
<!DOCTYPE svg PUBLIC "-//W3C//DTD SVG 1.1//EN" "http://www.w3.org/Graphics/SVG/1.1/DTD/svg11.dtd">
<svg version="1.1" xmlns="http://www.w3.org/2000/svg" xmlns:xlink="http://www.w3.org/1999/xlink" x="0px" y="0px" width="690px"
	 height="103.722px" viewBox="0 0 690 103.722" enable-background="new 0 0 690 103.722" xml:space="preserve">
<g id="Bg" display="none">
	<g display="inline">
		<defs>
			<rect id="SVGID_1_" width="690" height="103.722"/>
		</defs>
		<clipPath id="SVGID_2_">
			<use xlink:href="#SVGID_1_"  overflow="visible"/>
		</clipPath>
		
			<radialGradient id="SVGID_3_" cx="-9.9961" cy="396.9409" r="1" gradientTransform="matrix(345.0002 0 0 -51.8611 3793.4253 20637.6758)" gradientUnits="userSpaceOnUse">
			<stop  offset="0" style="stop-color:#3A3360"/>
			<stop  offset="1" style="stop-color:#1E1A33"/>
		</radialGradient>
		<rect clip-path="url(#SVGID_2_)" fill="url(#SVGID_3_)" width="690" height="103.722"/>
	</g>
</g>
<g id="Logo">
	<g id="Tag_Line">
		<g>
			<path fill="#FFFFFF" d="M237.869,48.49c0-7.854,3.853-12.485,9.336-12.485c5.483,0,9.336,4.631,9.336,12.485
				c0,7.965-3.853,12.707-9.336,12.707C241.722,61.197,237.869,56.455,237.869,48.49z M253.355,48.49
				c0-6.113-2.445-9.781-6.15-9.781c-3.705,0-6.15,3.668-6.15,9.781c0,6.224,2.445,10.003,6.15,10.003
				C250.91,58.493,253.355,54.713,253.355,48.49z"/>
			<path fill="#FFFFFF" d="M261.391,42.747h2.52l0.259,2.298h0.111c1.667-1.594,4.001-2.742,6.224-2.742
				c4.853,0,7.446,3.594,7.446,9.188c0,6.112-3.853,9.706-8.188,9.706c-1.667,0-3.779-0.852-5.372-2.334h-0.111l0.148,3.408v6.076
				h-3.038V42.747z M274.803,51.491c0-3.965-1.482-6.632-5.076-6.632c-1.593,0-3.445,0.852-5.298,2.704v8.966
				c1.704,1.52,3.594,2.112,4.816,2.112C272.469,58.641,274.803,55.936,274.803,51.491z"/>
			<path fill="#FFFFFF" d="M282.321,51.712c0-5.854,4.372-9.41,9.188-9.41c5.187,0,8.225,3.371,8.225,8.447
				c0,0.704-0.074,1.371-0.148,1.853h-14.189c0.371,4.075,3.26,6.149,7.002,6.149c2.148,0,3.853-0.666,5.483-1.704l1.111,2.001
				c-1.778,1.186-4.075,2.148-6.965,2.148C286.618,61.197,282.321,57.714,282.321,51.712z M285.47,50.231h11.485
				c-0.259-3.705-2.297-5.521-5.372-5.521C288.619,44.71,286.025,46.674,285.47,50.231z"/>
			<path fill="#FFFFFF" d="M305.102,42.747h2.52l0.259,3.075h0.148c1.889-2,3.964-3.52,6.78-3.52c4.26,0,6.224,2.52,6.224,7.262
				v11.188h-3.038V49.971c0-3.408-1.186-5.038-4.149-5.038c-2.149,0-3.594,1.074-5.706,3.26v12.56h-3.038V42.747z"/>
			<path fill="#FFFFFF" d="M347.85,57.603l1.852-2.148c1.816,1.815,4.335,3.038,7.113,3.038c3.336,0,5.299-1.593,5.299-3.854
				c0-2.593-1.891-3.334-4.371-4.408l-3.482-1.52c-2.445-0.963-5.262-2.704-5.262-6.261c0-3.705,3.334-6.446,7.965-6.446
				c3.039,0,5.705,1.223,7.484,3.001l-1.631,2c-1.592-1.407-3.445-2.297-5.965-2.297c-2.814,0-4.705,1.371-4.705,3.557
				c0,2.334,2.26,3.187,4.336,4.038l3.408,1.482c3,1.223,5.371,2.89,5.371,6.483c0,3.853-3.26,6.928-8.596,6.928
				C353.109,61.197,350.035,59.79,347.85,57.603z"/>
			<path fill="#FFFFFF" d="M369.445,51.787c0-6.039,4.148-9.484,8.891-9.484s8.893,3.445,8.893,9.484c0,5.965-4.15,9.41-8.893,9.41
				S369.445,57.751,369.445,51.787z M384.08,51.787c0-4.149-2.299-6.965-5.744-6.965s-5.742,2.815-5.742,6.965
				c0,4.112,2.297,6.891,5.742,6.891S384.08,55.899,384.08,51.787z"/>
			<path fill="#FFFFFF" d="M391.93,53.935V42.747h3.076v10.781c0,3.408,1.148,5.039,4.148,5.039c2.076,0,3.594-1.001,5.596-3.335
				V42.747h3.037v18.006h-2.482l-0.26-3.149h-0.148c-1.814,2.112-3.926,3.594-6.705,3.594
				C393.895,61.197,391.93,58.677,391.93,53.935z"/>
			<path fill="#FFFFFF" d="M416.342,42.747h2.52l0.26,4.261h0.111c1.889-2.89,4.705-4.705,8.039-4.705
				c1.334,0,2.445,0.186,3.557,0.741l-0.703,2.63c-1.26-0.444-1.928-0.629-3.336-0.629c-2.703,0-5.26,1.407-7.408,5.149v10.559
				h-3.039V42.747z"/>
			<path fill="#FFFFFF" d="M435.752,51.787c0-6.039,4.594-9.484,10.041-9.484c2.926,0,5.076,1.186,6.557,2.631l-1.518,1.963
				c-1.482-1.296-3.039-2.074-4.928-2.074c-4.15,0-7.002,2.815-7.002,6.965c0,4.112,2.777,6.891,6.928,6.891
				c2.223,0,4.074-1,5.557-2.26l1.371,1.964c-2,1.778-4.482,2.815-7.15,2.815C439.977,61.197,435.752,57.751,435.752,51.787z"/>
			<path fill="#FFFFFF" d="M457.164,51.712c0-5.854,4.371-9.41,9.188-9.41c5.188,0,8.225,3.371,8.225,8.447
				c0,0.704-0.074,1.371-0.148,1.853h-14.189c0.371,4.075,3.26,6.149,7.002,6.149c2.148,0,3.854-0.666,5.484-1.704l1.111,2.001
				c-1.779,1.186-4.076,2.148-6.967,2.148C461.461,61.197,457.164,57.714,457.164,51.712z M460.313,50.231h11.484
				c-0.258-3.705-2.297-5.521-5.371-5.521C463.461,44.71,460.869,46.674,460.313,50.231z"/>
			<path fill="#FFFFFF" d="M483.799,66.717c3.037-1.371,4.557-3.261,4.668-6.188c-0.223,0.074-0.482,0.074-0.705,0.074
				c-1.592,0-2.889-0.926-2.889-2.778c0-1.815,1.371-2.815,2.963-2.815c2.186,0,3.334,1.853,3.334,4.742
				c0,4.334-2.445,7.372-6.52,8.892L483.799,66.717z"/>
			<path fill="#FFFFFF" d="M524.434,36.449h15.043v2.594h-11.93v7.632h10.076v2.63h-10.076v8.817h12.299v2.631h-15.412V36.449z"/>
			<path fill="#FFFFFF" d="M543.955,42.747h3.076l4.148,10.226c0.74,1.815,1.408,3.594,2.037,5.298h0.148
				c0.631-1.704,1.223-3.482,1.965-5.298l4.148-10.226h2.928l-7.447,18.006h-3.408L543.955,42.747z"/>
			<path fill="#FFFFFF" d="M566.145,51.787c0-6.039,4.148-9.484,8.891-9.484s8.893,3.445,8.893,9.484c0,5.965-4.15,9.41-8.893,9.41
				S566.145,57.751,566.145,51.787z M580.779,51.787c0-4.149-2.299-6.965-5.744-6.965s-5.742,2.815-5.742,6.965
				c0,4.112,2.297,6.891,5.742,6.891S580.779,55.899,580.779,51.787z"/>
			<path fill="#FFFFFF" d="M594.928,54.713V36.856h-6.15v-2.482h9.188v20.562c0,2.63,1.408,3.741,3.557,3.741
				c1.039,0,2.15-0.259,3.373-0.814l0.777,2.26c-1.668,0.704-2.854,1.074-4.816,1.074C597.039,61.197,594.928,58.974,594.928,54.713
				z"/>
			<path fill="#FFFFFF" d="M609.521,42.747h3.076l4.148,10.226c0.74,1.815,1.408,3.594,2.037,5.298h0.148
				c0.631-1.704,1.223-3.482,1.965-5.298l4.148-10.226h2.928l-7.447,18.006h-3.408L609.521,42.747z"/>
			<path fill="#FFFFFF" d="M632.006,51.712c0-5.854,4.371-9.41,9.188-9.41c5.188,0,8.225,3.371,8.225,8.447
				c0,0.704-0.072,1.371-0.146,1.853h-14.189c0.369,4.075,3.26,6.149,7.002,6.149c2.148,0,3.852-0.666,5.482-1.704l1.111,2.001
				c-1.777,1.186-4.074,2.148-6.965,2.148C636.305,61.197,632.006,57.714,632.006,51.712z M635.154,50.231h11.486
				c-0.26-3.705-2.297-5.521-5.373-5.521C638.305,44.71,635.711,46.674,635.154,50.231z"/>
			<path fill="#FFFFFF" d="M653.564,51.787c0-5.854,3.928-9.484,8.188-9.484c2.15,0,3.816,0.853,5.373,2.334h0.111l-0.148-3.334
				v-6.928h3.037v26.378h-2.518l-0.26-2.371h-0.111c-1.482,1.519-3.631,2.815-5.854,2.815
				C656.678,61.197,653.564,57.789,653.564,51.787z M667.088,55.936V46.97c-1.631-1.519-3.186-2.111-4.742-2.111
				c-3.111,0-5.631,2.778-5.631,6.891c0,4.298,1.963,6.892,5.297,6.892C663.791,58.641,665.494,57.714,667.088,55.936z"/>
			<path fill="#FFFFFF" d="M681.311,58.085c0-1.89,1.334-3.149,3.002-3.149c1.666,0,3,1.26,3,3.149c0,1.852-1.334,3.111-3,3.111
				C682.645,61.197,681.311,59.937,681.311,58.085z"/>
		</g>
	</g>
	<g id="Vert_Rule">
		<rect id="vrule_1_" x="203.492" fill="#BC8C3D" width="4.446" height="103.722"/>
	</g>
	<g id="OES">
		<path fill="#FFFFFF" d="M124.243,80.381c-0.226,0.15-0.406,0.282-0.594,0.396c-3.757,2.311-7.712,4.223-11.82,5.817
			c-2.091,0.812-4.268,1.318-6.476,1.7c-2.85,0.485-5.725,0.684-8.609,0.7c-6.214,0.034-12.209-1.064-17.905-3.614
			c-11.37-5.093-17.75-14.645-20.165-24.241c-0.805-3.195-1.18-6.446-1.229-9.741c-0.032-2.286,0.047-4.569,0.333-6.845
			c0.514-4.071,1.583-7.984,3.372-11.688c0.063-0.131,0.142-0.255,0.243-0.435c0.104,0.139,0.186,0.223,0.239,0.324
			c1.521,2.838,2.678,5.818,3.353,8.977c0.069,0.322,0.069,0.628,0.009,0.955c-0.165,0.904-0.3,1.813-0.442,2.72
			c-0.017,0.119-0.002,0.243-0.002,0.399c0.15,0.029,0.29,0.073,0.43,0.08c0.272,0.013,0.547,0.004,0.819,0.004
			c17.224,0,34.449,0,51.671,0c0.225,0,0.449,0.009,0.671-0.001c0.36-0.017,0.676,0.089,0.989,0.269
			c2.31,1.33,4.738,2.405,7.23,3.344c0.209,0.079,0.417,0.16,0.624,0.247c0.067,0.028,0.127,0.075,0.191,0.111
			c0.074,0.488,0.074,0.488-0.164,1.249c-0.105,0.015-0.225,0.04-0.345,0.043c-0.249,0.006-0.497,0.003-0.745,0.003
			c-20.132,0-40.264,0-60.396,0.001c-0.317,0-0.64-0.037-0.977,0.057c-0.092,0.365-0.041,0.71-0.019,1.051
			c0.102,1.763,0.31,3.514,0.619,5.253c0.843,4.749,2.592,9.132,5.431,13.025c1.82,2.498,4.01,4.672,6.542,6.474
			c3.658,2.601,7.684,4.349,12.081,5.244c2.442,0.494,4.908,0.74,7.402,0.735c1.542-0.002,3.083-0.031,4.616-0.188
			c3.453-0.354,6.804-1.125,10.031-2.422c3.214-1.291,6.286-2.853,9.201-4.725c0.208-0.136,0.415-0.274,0.635-0.389
			c0.246-0.126,0.422-0.066,0.57,0.16c0.041,0.064,0.074,0.131,0.109,0.195c0.789,1.494,1.58,2.988,2.368,4.481
			C124.17,80.175,124.191,80.247,124.243,80.381 M71.783,28.076c0.791-0.858,1.536-1.767,2.386-2.563
			c5.896-5.513,12.874-8.298,20.967-8.19c2.97,0.041,5.895,0.431,8.739,1.32c4.05,1.268,7.54,3.424,10.395,6.574
			c2.051,2.261,3.5,4.88,4.479,7.759c0.305,0.895,0.779,1.656,1.415,2.336c0.819,0.88,1.743,1.626,2.766,2.254
			c1.146,0.702,2.342,1.307,3.563,1.867c0.13,0.058,0.277,0.087,0.442,0.141c0.085-0.438-0.042-0.821-0.099-1.208
			c-0.466-3.138-1.313-6.167-2.594-9.07c-2.037-4.622-5.017-8.5-9.09-11.51c-3.134-2.316-6.614-3.924-10.363-4.955
			c-2.572-0.707-5.197-1.08-7.859-1.256c-3.119-0.208-6.214-0.051-9.275,0.544c-7.586,1.476-14.099,4.972-19.512,10.497
			c-0.173,0.177-0.333,0.365-0.514,0.563c0.629,0.892,1.266,1.746,1.852,2.635c0.6,0.912,1.15,1.854,1.776,2.871
			C71.46,28.448,71.617,28.257,71.783,28.076"/>
		<path fill="#FFFFFF" d="M74.248,44.234c-0.083,0.021-0.177,0.07-0.271,0.07c-2.283,0.003-4.567,0.003-6.875,0.003
			c-0.147-0.328-0.167-0.65-0.217-0.96c-0.768-4.799-2.424-9.264-5.038-13.363c-2.381-3.729-5.427-6.777-9.294-8.971
			c-3.107-1.761-6.433-2.856-9.979-3.302c-2.305-0.291-4.612-0.33-6.917-0.081c-7.493,0.808-13.607,4.145-18.268,10.08
			c-2.785,3.548-4.658,7.559-5.849,11.894c-0.674,2.452-1.05,4.952-1.227,7.49c-0.164,2.336-0.159,4.669,0.031,7.001
			c0.509,6.236,2.345,12.028,5.894,17.217c3.379,4.938,7.904,8.401,13.586,10.316c3.193,1.074,6.485,1.459,9.841,1.375
			c3.181-0.082,6.27-0.655,9.244-1.805c4.705-1.818,8.597-4.726,11.654-8.741c0.164-0.216,0.333-0.432,0.502-0.646
			c0.014-0.018,0.041-0.027,0.102-0.071c0.073,0.076,0.171,0.145,0.229,0.24c1.098,1.81,2.316,3.531,3.681,5.15
			c0.077,0.092,0.133,0.2,0.226,0.343c-0.226,0.247-0.435,0.489-0.654,0.723c-4.166,4.385-9.169,7.418-14.942,9.187
			c-4.297,1.315-8.692,1.802-13.18,1.537c-4.901-0.291-9.566-1.479-13.962-3.658c-6.502-3.227-11.454-8.065-14.871-14.473
			c-2.063-3.873-3.415-7.979-4.092-12.317c-0.632-4.046-0.734-8.109-0.452-12.188c0.222-3.208,0.754-6.364,1.678-9.448
			c1.251-4.173,3.087-8.071,5.689-11.582c3.925-5.293,9.026-9.039,15.173-11.379c3.413-1.302,6.945-2.046,10.593-2.288
			c6.038-0.399,11.842,0.551,17.379,2.997c7.218,3.189,12.673,8.281,16.319,15.292c2.06,3.958,3.408,8.149,4.061,12.563
			c0.079,0.541,0.151,1.082,0.224,1.624C74.272,44.11,74.257,44.16,74.248,44.234"/>
		<path fill="#FFFFFF" d="M111.09,24.391c0.682,0.517,1.251,1.106,1.817,1.696c1.69,1.765,2.914,3.829,3.869,6.063
			c0.078,0.18,0.14,0.371,0.188,0.564c0.393,1.532,1.201,2.824,2.285,3.956c1.059,1.106,2.288,1.986,3.611,2.739
			c2.056,1.173,4.216,2.119,6.42,2.966c3.809,1.467,7.723,2.587,11.681,3.563c4.632,1.144,9.225,2.416,13.72,4.029
			c2.786,0.997,5.51,2.141,8.093,3.599c1.627,0.918,3.166,1.963,4.566,3.209c2.299,2.046,3.856,4.541,4.481,7.563
			c1.177,5.678-0.135,10.742-3.898,15.152c-1.796,2.104-3.994,3.719-6.416,5.037c-2.989,1.624-6.173,2.727-9.49,3.456
			c-3.021,0.664-6.087,0.934-9.174,1.003c-2.461,0.055-4.92-0.051-7.371-0.273c-5.099-0.46-10.065-1.513-14.837-3.403
			c-0.275-0.109-0.547-0.224-0.814-0.332c0.057-0.279,0.285-0.304,0.45-0.397c1.339-0.762,2.684-1.511,4.021-2.278
			c0.536-0.307,1.067-0.628,1.472-1.113c0.794,0.193,1.563,0.389,2.336,0.571c2.642,0.616,5.321,1.003,8.028,1.176
			c1.809,0.113,3.623,0.193,5.435,0.229c2.364,0.044,4.723-0.079,7.065-0.404c2.944-0.411,5.803-1.117,8.459-2.509
			c2.143-1.12,3.975-2.628,5.494-4.507c1.341-1.658,2.24-3.528,2.494-5.656c0.417-3.517-0.48-6.599-3.134-9.063
			c-1.395-1.297-2.978-2.315-4.661-3.19c-2.41-1.252-4.933-2.229-7.502-3.09c-3.653-1.228-7.37-2.221-11.11-3.144
			c-4.491-1.104-8.914-2.426-13.201-4.176c-2.93-1.195-5.737-2.622-8.329-4.454c-1.939-1.371-3.68-2.954-5.109-4.861
			c-1.281-1.711-2.086-3.612-2.295-5.74c-0.073-0.739-0.073-1.49-0.034-2.233c0.094-1.797,0.463-3.544,1.1-5.231
			c0.044-0.116,0.09-0.231,0.142-0.344C110.96,24.519,111.004,24.486,111.09,24.391"/>
		<path fill="#FFFFFF" d="M121.42,21.433c-0.747-0.796-1.419-1.563-2.145-2.276c-0.723-0.713-1.499-1.373-2.293-2.095
			c0.213-0.155,0.403-0.307,0.603-0.439c1.875-1.244,3.902-2.176,6.021-2.915c2.592-0.904,5.255-1.49,7.979-1.808
			c2.744-0.322,5.498-0.482,8.259-0.388c4.729,0.159,9.319,1.074,13.797,2.582c3.065,1.03,6.058,2.242,8.893,3.808
			c1.237,0.683,2.427,1.458,3.634,2.197c0.208,0.127,0.396,0.287,0.631,0.46c-0.562,0.883-1.21,1.664-1.811,2.476
			c-0.588,0.794-1.172,1.595-1.821,2.403c-0.308-0.217-0.568-0.399-0.829-0.582c-4.086-2.868-8.528-4.984-13.356-6.267
			c-2.41-0.638-4.866-0.987-7.351-1.162c-2.435-0.171-4.868-0.136-7.299,0.035c-3.04,0.216-6.01,0.764-8.861,1.875
			c-1.301,0.507-2.551,1.111-3.712,1.891C121.656,21.295,121.548,21.355,121.42,21.433"/>
		<path fill="#FFFFFF" d="M67.42,52.792c2.391,0,4.721-0.014,7.089,0.01c0.026,0.15,0.066,0.269,0.06,0.381
			c-0.242,4.513-0.991,8.927-2.622,13.164c-0.214,0.556-0.446,1.104-0.674,1.655c-0.038,0.088-0.096,0.17-0.156,0.271
			c-0.273-0.136-0.367-0.405-0.502-0.632c-1.259-2.123-2.25-4.366-2.989-6.72c-0.266-0.853-0.475-1.721-0.708-2.585
			c-0.085-0.317-0.096-0.636-0.043-0.959c0.231-1.398,0.393-2.803,0.467-4.217C67.348,53.065,67.381,52.969,67.42,52.792"/>
		<path fill="#FFFFFF" d="M109.33,72.456c1.087,0.796,2.072,1.554,3.094,2.256c1.015,0.705,2.067,1.352,3.109,2.031
			c-0.716,0.596-4.81,2.42-6.493,2.894c-1.156-0.698-2.314-1.454-3.455-2.298c0.333-0.63,0.804-1.11,1.202-1.64
			c0.417-0.556,0.853-1.099,1.281-1.646C108.48,73.53,108.895,73.007,109.33,72.456"/>
	</g>
</g>
</svg>
