<?xml version="1.0" encoding="utf-8"?>
<!-- Generator: Adobe Illustrator 15.1.0, SVG Export Plug-In . SVG Version: 6.00 Build 0)  -->
<!DOCTYPE svg PUBLIC "-//W3C//DTD SVG 1.1//EN" "http://www.w3.org/Graphics/SVG/1.1/DTD/svg11.dtd">
<svg version="1.1" id="Shapes" xmlns="http://www.w3.org/2000/svg" xmlns:xlink="http://www.w3.org/1999/xlink" x="0px" y="0px"
	 width="493.471px" height="469.696px" viewBox="0 0 493.471 469.696" enable-background="new 0 0 493.471 469.696"
	 xml:space="preserve">
<g id="mag_glass">
	<path fill-rule="evenodd" clip-rule="evenodd" d="M47.041,59.207c67.198-73.916,181.592-79.363,255.508-12.166
		c64.254,58.414,76.756,152.488,34.789,224.64l143.453,130.414c15.823,14.385,16.999,39.1,2.615,54.922l0,0
		c-14.385,15.823-39.1,16.999-54.922,2.615L284.767,328.977c-67.74,47.611-161.737,43.76-225.561-14.262
		C-14.709,247.518-20.156,133.123,47.041,59.207"/>
	<path fill-rule="evenodd" clip-rule="evenodd" fill="#FFFFFF" d="M81.758,90.768c49.766-54.741,134.487-58.775,189.229-9.009
		c54.742,49.767,58.775,134.487,9.009,189.229s-134.487,58.775-189.229,9.009C36.026,230.23,31.992,145.51,81.758,90.768"/>
</g>
</svg>
