<?xml version="1.0" encoding="utf-8"?>
<!-- Generator: Adobe Illustrator 15.1.0, SVG Export Plug-In . SVG Version: 6.00 Build 0)  -->
<!DOCTYPE svg PUBLIC "-//W3C//DTD SVG 1.1//EN" "http://www.w3.org/Graphics/SVG/1.1/DTD/svg11.dtd">
<svg version="1.1" id="Shapes" xmlns="http://www.w3.org/2000/svg" xmlns:xlink="http://www.w3.org/1999/xlink" x="0px" y="0px"
	 width="1140.292px" height="91.287px" viewBox="0 0 1140.292 91.287" enable-background="new 0 0 1140.292 91.287"
	 xml:space="preserve">
<path id="squiggle_underline" fill-rule="evenodd" clip-rule="evenodd" d="M459.338,41.328
	c-89.397,2.447-179.269,3.553-268.939,6.921C128.241,50.584,66.21,53.975,4.505,59.807c-2.228,0.245-4.234-1.364-4.48-3.592
	c-0.244-2.228,1.365-4.234,3.593-4.479c61.697-7.754,123.792-13.148,186.057-17.333c93.164-6.259,186.627-9.845,279.513-15.137
	c21.073-1.166,41.969-2.83,62.819-4.759c31.464-2.911,62.804-6.438,94.447-9.825c15.415-1.649,26.038-2.85,37.291-3.603
	c7.63-0.512,15.542-0.807,25.373-0.904c6.233-0.055,21.601-0.512,25.329,0.314c6.209,1.375,8.756,5.35,9.865,7.436
	c2.261,4.245,2.474,8.859-0.494,13.816c-0.836,1.398-2.911,4.503-8.506,6.537c-23.559,8.568-48.117,14.304-73.055,18.638
	c-30.093,5.229-60.738,8.384-90.74,12.343c46.215,0.572,100.308-1.26,156.821-4.526c157.728-9.114,334.099-30.178,413.83-47.439
	c8.047-1.766,16.011,3.336,17.774,11.382c1.765,8.046-3.336,16.011-11.381,17.775c-80.56,17.884-258.813,40.653-418.334,50.277
	c-123.022,7.421-235.031,6.589-284.098-8.523c-15.868-4.953-13.574-17.358-12.202-21.444c0.988-2.944,3.315-7.647,9.843-10.302
	c4.31-1.752,23.686-3.237,31.484-4.529L459.338,41.328L459.338,41.328z"/>
</svg>
