<?xml version="1.0" encoding="utf-8"?>
<!-- Generator: Adobe Illustrator 15.1.0, SVG Export Plug-In . SVG Version: 6.00 Build 0)  -->
<!DOCTYPE svg PUBLIC "-//W3C//DTD SVG 1.1//EN" "http://www.w3.org/Graphics/SVG/1.1/DTD/svg11.dtd">
<svg version="1.1" id="Shapes" xmlns="http://www.w3.org/2000/svg" xmlns:xlink="http://www.w3.org/1999/xlink" x="0px" y="0px"
	 width="317.833px" height="294.174px" viewBox="0 0 317.833 294.174" enable-background="new 0 0 317.833 294.174"
	 xml:space="preserve">
<path id="x" fill-rule="evenodd" clip-rule="evenodd" d="M144.942,114.615c20.19-18.449,40.858-36.276,61.708-54.04
	c23.857-20.329,48.084-39.922,72.629-59.512c1.652-1.512,4.225-1.397,5.736,0.257c1.512,1.653,1.397,4.224-0.256,5.735
	c-31.225,32.471-61.276,65.555-91.623,98.709c-8.89,9.712-17.742,19.397-26.714,29.015c4.65,4.237,9.341,8.454,14.054,12.669
	c9.283,8.308,18.648,16.531,27.974,24.834c14.089,12.544,28.113,25.164,42.072,37.699c21.559,19.356,42.667,38.822,62.702,58.483
	c5.955,5.692,6.168,15.148,0.475,21.103c-5.691,5.953-15.146,6.166-21.102,0.475c-28.816-27.016-60.362-52.932-90.745-80.414
	c-8.093-7.319-16.101-14.75-23.854-22.433c-10.554-10.458-20.748-21.216-30.513-32.324c-5.202,5.46-10.435,10.888-15.722,16.268
	C96.817,206.694,60.95,241.323,25.501,276.42c-5.81,5.839-15.267,5.863-21.106,0.053c-5.839-5.81-5.863-15.268-0.054-21.106
	c26.116-26.809,51.829-53.978,78.241-80.462c14.798-14.838,29.667-29.607,44.876-44.024c-23.236-29.364-43.268-60.635-58.539-94.634
	c-1.059-1.976-0.314-4.438,1.659-5.497c1.976-1.06,4.438-0.315,5.497,1.659c17.893,28.234,39.73,53.174,63.514,76.927
	C141.364,111.106,143.149,112.867,144.942,114.615L144.942,114.615z"/>
</svg>
