<?xml version="1.0" encoding="UTF-8" standalone="no"?>
<!DOCTYPE svg PUBLIC "-//W3C//DTD SVG 1.1//EN" "http://www.w3.org/Graphics/SVG/1.1/DTD/svg11.dtd">
<svg width="100%" height="100%" viewBox="0 0 80 80" version="1.1" xmlns="http://www.w3.org/2000/svg" xmlns:xlink="http://www.w3.org/1999/xlink" xml:space="preserve" style="fill-rule:evenodd;clip-rule:evenodd;stroke-linejoin:round;stroke-miterlimit:1.41421;">
    <g id="arrow.-maximise" transform="matrix(4.5,0,0,4.5,-14,-14)">
        <path d="M15,4C14.447,4 14,4.448 14,5C14,5.552 14.447,6 15,6L16.586,6L13.293,9.293C12.902,9.684 12.902,10.316 13.293,10.707C13.488,10.902 13.744,11 14,11C14.256,11 14.512,10.902 14.707,10.707L18,7.414L18,9C18,9.552 18.447,10 19,10C19.553,10 20,9.552 20,9L20,4L15,4L15,4ZM9.293,13.293L6,16.586L6,15C6,14.448 5.553,14 5,14C4.447,14 4,14.448 4,15L4,19.999L4.996,19.999L9,20C9.552,20 10,19.552 10,19C10,18.448 9.553,18 9,18L7.414,18L10.707,14.708C11.098,14.317 11.098,13.685 10.707,13.294C10.316,12.903 9.684,12.902 9.293,13.293L9.293,13.293ZM7,12C7.552,12 8,11.552 8,11L8,8L11,8C11.553,8 12,7.552 12,7C12,6.448 11.553,6 11,6L6.001,6L6,11C6,11.552 6.447,12 7,12ZM17,12C16.447,12 16,12.448 16,13L16,16L13,16C12.447,16 12,16.448 12,17C12,17.552 12.447,18 13,18L18,18L18,13C18,12.448 17.553,12 17,12Z" style="fill:none;stroke:white;stroke-width:0.44px;"/>
    </g>
</svg>
