<?xml version="1.0" encoding="UTF-8" standalone="no"?>
<!DOCTYPE svg PUBLIC "-//W3C//DTD SVG 1.1//EN" "http://www.w3.org/Graphics/SVG/1.1/DTD/svg11.dtd">
<svg width="100%" height="100%" viewBox="0 0 80 80" version="1.1" xmlns="http://www.w3.org/2000/svg" xmlns:xlink="http://www.w3.org/1999/xlink" xml:space="preserve" style="fill-rule:evenodd;clip-rule:evenodd;stroke-linejoin:round;stroke-miterlimit:1.41421;">
    <g id="puzzle" transform="matrix(4.64516,0,0,4.64516,-13.4194,-16.9032)">
        <path d="M16.25,11.25C16.614,11.25 16.954,11.395 17.234,11.641C17.783,11.973 18,11.607 18,11.25L18,9.5C18,8.675 17.325,8 16.5,8L13.75,8C13.394,8 13.026,7.784 13.359,7.234C13.605,6.954 13.75,6.615 13.75,6.25C13.75,5.283 12.743,4.5 11.5,4.5C10.257,4.5 9.25,5.283 9.25,6.25C9.25,6.55 9.345,6.826 9.505,7.073C10.012,7.746 9.641,8 9.25,8L6.5,8C5.675,8 5,8.675 5,9.5L5,11.25C5,11.641 5.254,12.012 5.928,11.494C6.174,11.345 6.45,11.25 6.75,11.25C7.716,11.25 8.5,12.258 8.5,13.5C8.5,14.742 7.716,15.75 6.75,15.75C6.386,15.75 6.046,15.605 5.766,15.359C5.217,15.027 5,15.393 5,15.75L5,18.5C5,19.325 5.675,20 6.5,20L9.25,20C9.641,20 10.012,19.746 9.493,19.073C9.345,18.826 9.25,18.55 9.25,18.25C9.25,17.283 10.257,16.5 11.5,16.5C12.743,16.5 13.75,17.283 13.75,18.25C13.75,18.615 13.605,18.954 13.359,19.234C13.026,19.784 13.394,20 13.75,20L16.5,20C17.325,20 18,19.325 18,18.5L18,15.75C18,15.359 17.746,14.988 17.072,15.506C16.826,15.655 16.55,15.75 16.25,15.75C15.284,15.75 14.5,14.742 14.5,13.5C14.5,12.258 15.284,11.25 16.25,11.25Z" style="fill:none;stroke:white;stroke-width:0.43px;"/>
    </g>
</svg>
