<?xml version="1.0" encoding="UTF-8" standalone="no"?>
<!DOCTYPE svg PUBLIC "-//W3C//DTD SVG 1.1//EN" "http://www.w3.org/Graphics/SVG/1.1/DTD/svg11.dtd">
<svg width="100%" height="100%" viewBox="0 0 80 80" version="1.1" xmlns="http://www.w3.org/2000/svg" xmlns:xlink="http://www.w3.org/1999/xlink" xml:space="preserve" style="fill-rule:evenodd;clip-rule:evenodd;stroke-linejoin:round;stroke-miterlimit:1.41421;">
    <g id="weather.-sunny" transform="matrix(3.83072,0,0,3.83072,-5.96877,-5.96877)">
        <path d="M13,4L12,6.934L11,4C10.812,3.447 11.106,2.848 11.659,2.659C12.211,2.471 12.812,2.766 13,3.318C13.078,3.548 13.072,3.787 13,4L13,4ZM4,11L6.934,12L4,13C3.447,13.188 2.848,12.894 2.659,12.341C2.471,11.789 2.766,11.188 3.318,11C3.548,10.922 3.787,10.928 4,11L4,11ZM11,20L12,17.066L13,20C13.188,20.553 12.894,21.152 12.341,21.341C11.789,21.529 11.189,21.235 11,20.682C10.922,20.452 10.928,20.213 11,20L11,20ZM20,12.998L17.066,11.998L20,10.998C20.553,10.81 21.152,11.104 21.341,11.657C21.529,12.209 21.235,12.809 20.682,12.998C20.452,13.076 20.213,13.07 20,12.998L20,12.998ZM7.05,5.636L8.417,8.417L5.636,7.05C5.112,6.793 4.896,6.159 5.153,5.636C5.411,5.113 6.044,4.897 6.567,5.154C6.785,5.261 6.95,5.434 7.05,5.636L7.05,5.636ZM5.636,16.949L8.417,15.582L7.05,18.363C6.793,18.886 6.159,19.102 5.636,18.845C5.113,18.587 4.897,17.954 5.154,17.431C5.261,17.213 5.434,17.049 5.636,16.949L5.636,16.949ZM16.949,18.363L15.582,15.582L18.363,16.949C18.886,17.206 19.102,17.84 18.845,18.363C18.587,18.886 17.954,19.102 17.431,18.845C17.213,18.738 17.049,18.565 16.949,18.363L16.949,18.363ZM18.362,7.048L15.58,8.416L16.948,5.634C17.205,5.111 17.839,4.895 18.362,5.152C18.885,5.41 19.101,6.043 18.843,6.567C18.737,6.784 18.564,6.948 18.362,7.048ZM12,16.5C9.519,16.5 7.5,14.481 7.5,12C7.5,9.519 9.519,7.5 12,7.5C14.481,7.5 16.5,9.519 16.5,12C16.5,14.481 14.481,16.5 12,16.5ZM12,9.5C10.621,9.5 9.5,10.621 9.5,12C9.5,13.379 10.621,14.5 12,14.5C13.379,14.5 14.5,13.379 14.5,12C14.5,10.621 13.379,9.5 12,9.5Z" style="fill:none;stroke:white;stroke-width:0.52px;"/>
    </g>
</svg>
